<svg width="47" height="24" viewBox="0 0 47 24" fill="none" xmlns="http://www.w3.org/2000/svg">
<circle cx="24" cy="22" r="2" fill="#FF7122"/>
<path d="M2.457 7.161V9.813H5.577V11.022H2.457V13.791H5.967V15H0.975V5.952H5.967V7.161H2.457ZM10.8604 11.373L13.1744 15H11.4974L9.95038 12.569L8.49438 15H6.94738L9.26138 11.477L6.94738 7.837H8.62438L10.1714 10.268L11.6274 7.837H13.1744L10.8604 11.373ZM15.7617 8.89C16.013 8.56067 16.3554 8.28333 16.7887 8.058C17.222 7.83267 17.7117 7.72 18.2577 7.72C18.8817 7.72 19.4494 7.876 19.9607 8.188C20.4807 8.49133 20.888 8.92033 21.1827 9.475C21.4774 10.0297 21.6247 10.6667 21.6247 11.386C21.6247 12.1053 21.4774 12.751 21.1827 13.323C20.888 13.8863 20.4807 14.3283 19.9607 14.649C19.4494 14.961 18.8817 15.117 18.2577 15.117C17.7117 15.117 17.2264 15.0087 16.8017 14.792C16.377 14.5667 16.0304 14.2893 15.7617 13.96V18.406H14.2797V7.837H15.7617V8.89ZM20.1167 11.386C20.1167 10.892 20.0127 10.4673 19.8047 10.112C19.6054 9.748 19.3367 9.475 18.9987 9.293C18.6694 9.10233 18.314 9.007 17.9327 9.007C17.56 9.007 17.2047 9.10233 16.8667 9.293C16.5374 9.48367 16.2687 9.761 16.0607 10.125C15.8614 10.489 15.7617 10.918 15.7617 11.412C15.7617 11.906 15.8614 12.3393 16.0607 12.712C16.2687 13.076 16.5374 13.3533 16.8667 13.544C17.2047 13.7347 17.56 13.83 17.9327 13.83C18.314 13.83 18.6694 13.7347 18.9987 13.544C19.3367 13.3447 19.6054 13.0587 19.8047 12.686C20.0127 12.3133 20.1167 11.88 20.1167 11.386ZM24.5722 5.38V15H23.0902V5.38H24.5722ZM29.625 15.117C28.949 15.117 28.338 14.9653 27.792 14.662C27.246 14.35 26.817 13.9167 26.505 13.362C26.193 12.7987 26.037 12.1487 26.037 11.412C26.037 10.684 26.1973 10.0383 26.518 9.475C26.8386 8.91167 27.2763 8.47833 27.831 8.175C28.3856 7.87167 29.0053 7.72 29.69 7.72C30.3746 7.72 30.9943 7.87167 31.549 8.175C32.1036 8.47833 32.5413 8.91167 32.862 9.475C33.1826 10.0383 33.343 10.684 33.343 11.412C33.343 12.14 33.1783 12.7857 32.849 13.349C32.5196 13.9123 32.069 14.35 31.497 14.662C30.9336 14.9653 30.3096 15.117 29.625 15.117ZM29.625 13.83C30.0063 13.83 30.3616 13.739 30.691 13.557C31.029 13.375 31.302 13.102 31.51 12.738C31.718 12.374 31.822 11.932 31.822 11.412C31.822 10.892 31.7223 10.4543 31.523 10.099C31.3236 9.735 31.0593 9.462 30.73 9.28C30.4006 9.098 30.0453 9.007 29.664 9.007C29.2826 9.007 28.9273 9.098 28.598 9.28C28.2773 9.462 28.0216 9.735 27.831 10.099C27.6403 10.4543 27.545 10.892 27.545 11.412C27.545 12.1833 27.74 12.7813 28.13 13.206C28.5286 13.622 29.027 13.83 29.625 13.83ZM36.29 8.877C36.5067 8.513 36.7927 8.23133 37.148 8.032C37.512 7.824 37.941 7.72 38.435 7.72V9.254H38.058C37.4773 9.254 37.0353 9.40133 36.732 9.696C36.4373 9.99067 36.29 10.502 36.29 11.23V15H34.808V7.837H36.29V8.877ZM46.3623 11.243C46.3623 11.5117 46.3449 11.7543 46.3103 11.971H40.8373C40.8806 12.543 41.0929 13.0023 41.4743 13.349C41.8556 13.6957 42.3236 13.869 42.8783 13.869C43.6756 13.869 44.2389 13.5353 44.5683 12.868H46.1673C45.9506 13.5267 45.5563 14.0683 44.9843 14.493C44.4209 14.909 43.7189 15.117 42.8783 15.117C42.1936 15.117 41.5783 14.9653 41.0323 14.662C40.4949 14.35 40.0703 13.9167 39.7583 13.362C39.4549 12.7987 39.3033 12.1487 39.3033 11.412C39.3033 10.6753 39.4506 10.0297 39.7453 9.475C40.0486 8.91167 40.4689 8.47833 41.0063 8.175C41.5523 7.87167 42.1763 7.72 42.8783 7.72C43.5543 7.72 44.1566 7.86733 44.6853 8.162C45.2139 8.45667 45.6256 8.87267 45.9203 9.41C46.2149 9.93867 46.3623 10.5497 46.3623 11.243ZM44.8153 10.775C44.8066 10.229 44.6116 9.79133 44.2303 9.462C43.8489 9.13267 43.3766 8.968 42.8133 8.968C42.3019 8.968 41.8643 9.13267 41.5003 9.462C41.1363 9.78267 40.9196 10.2203 40.8503 10.775H44.8153Z" fill="#0A0B2E"/>
</svg>
