<svg width="18" height="18" viewBox="0 0 18 18" fill="none" xmlns="http://www.w3.org/2000/svg">
<path d="M1.28111 9.97076C0.998697 8.13299 0.857489 7.21411 1.20493 6.3995C1.55238 5.58489 2.32322 5.02755 3.86491 3.91285L5.01679 3.08C6.93463 1.69333 7.89355 1 9 1C10.1064 1 11.0654 1.69333 12.9832 3.08L14.1351 3.91285C15.6768 5.02755 16.4476 5.58489 16.7951 6.3995C17.1425 7.21411 17.0013 8.13299 16.7189 9.97076L16.4781 11.5379C16.0777 14.1431 15.8775 15.4458 14.9432 16.2229C14.0089 17 12.6429 17 9.91105 17H8.08895C5.35707 17 3.99113 17 3.0568 16.2229C2.12247 15.4458 1.9223 14.1431 1.52194 11.5379L1.28111 9.97076Z" stroke="#AAAAAA" stroke-width="1.5" stroke-linejoin="round"/>
<path d="M9 13.8L9 11.4" stroke="#AAAAAA" stroke-width="1.5" stroke-linecap="round"/>
</svg>
