<svg width="39" height="24" viewBox="0 0 39 24" fill="none" xmlns="http://www.w3.org/2000/svg">
<circle cx="19" cy="22" r="2" fill="#FF7122"/>
<path d="M8.19 5.965V15H6.708V11.048H2.457V15H0.975V5.965H2.457V9.839H6.708V5.965H8.19ZM13.248 15.117C12.572 15.117 11.961 14.9653 11.415 14.662C10.869 14.35 10.44 13.9167 10.128 13.362C9.81602 12.7987 9.66002 12.1487 9.66002 11.412C9.66002 10.684 9.82035 10.0383 10.141 9.475C10.4617 8.91167 10.8993 8.47833 11.454 8.175C12.0087 7.87167 12.6283 7.72 13.313 7.72C13.9977 7.72 14.6173 7.87167 15.172 8.175C15.7267 8.47833 16.1643 8.91167 16.485 9.475C16.8057 10.0383 16.966 10.684 16.966 11.412C16.966 12.14 16.8013 12.7857 16.472 13.349C16.1427 13.9123 15.692 14.35 15.12 14.662C14.5567 14.9653 13.9327 15.117 13.248 15.117ZM13.248 13.83C13.6293 13.83 13.9847 13.739 14.314 13.557C14.652 13.375 14.925 13.102 15.133 12.738C15.341 12.374 15.445 11.932 15.445 11.412C15.445 10.892 15.3453 10.4543 15.146 10.099C14.9467 9.735 14.6823 9.462 14.353 9.28C14.0237 9.098 13.6683 9.007 13.287 9.007C12.9057 9.007 12.5503 9.098 12.221 9.28C11.9003 9.462 11.6447 9.735 11.454 10.099C11.2633 10.4543 11.168 10.892 11.168 11.412C11.168 12.1833 11.363 12.7813 11.753 13.206C12.1517 13.622 12.65 13.83 13.248 13.83ZM27.1021 7.72C27.6654 7.72 28.1681 7.837 28.6101 8.071C29.0607 8.305 29.4117 8.65167 29.6631 9.111C29.9231 9.57033 30.0531 10.125 30.0531 10.775V15H28.5841V10.996C28.5841 10.3547 28.4237 9.865 28.1031 9.527C27.7824 9.18033 27.3447 9.007 26.7901 9.007C26.2354 9.007 25.7934 9.18033 25.4641 9.527C25.1434 9.865 24.9831 10.3547 24.9831 10.996V15H23.5141V10.996C23.5141 10.3547 23.3537 9.865 23.0331 9.527C22.7124 9.18033 22.2747 9.007 21.7201 9.007C21.1654 9.007 20.7234 9.18033 20.3941 9.527C20.0734 9.865 19.9131 10.3547 19.9131 10.996V15H18.4311V7.837H19.9131V8.656C20.1557 8.36133 20.4634 8.13167 20.8361 7.967C21.2087 7.80233 21.6074 7.72 22.0321 7.72C22.6041 7.72 23.1154 7.84133 23.5661 8.084C24.0167 8.32667 24.3634 8.67767 24.6061 9.137C24.8227 8.70367 25.1607 8.36133 25.6201 8.11C26.0794 7.85 26.5734 7.72 27.1021 7.72ZM38.5039 11.243C38.5039 11.5117 38.4865 11.7543 38.4519 11.971H32.9789C33.0222 12.543 33.2345 13.0023 33.6159 13.349C33.9972 13.6957 34.4652 13.869 35.0199 13.869C35.8172 13.869 36.3805 13.5353 36.7099 12.868H38.3089C38.0922 13.5267 37.6979 14.0683 37.1259 14.493C36.5625 14.909 35.8605 15.117 35.0199 15.117C34.3352 15.117 33.7199 14.9653 33.1739 14.662C32.6365 14.35 32.2119 13.9167 31.8999 13.362C31.5965 12.7987 31.4449 12.1487 31.4449 11.412C31.4449 10.6753 31.5922 10.0297 31.8869 9.475C32.1902 8.91167 32.6105 8.47833 33.1479 8.175C33.6939 7.87167 34.3179 7.72 35.0199 7.72C35.6959 7.72 36.2982 7.86733 36.8269 8.162C37.3555 8.45667 37.7672 8.87267 38.0619 9.41C38.3565 9.93867 38.5039 10.5497 38.5039 11.243ZM36.9569 10.775C36.9482 10.229 36.7532 9.79133 36.3719 9.462C35.9905 9.13267 35.5182 8.968 34.9549 8.968C34.4435 8.968 34.0059 9.13267 33.6419 9.462C33.2779 9.78267 33.0612 10.2203 32.9919 10.775H36.9569Z" fill="black"/>
</svg>
