<svg width="56" height="24" viewBox="0 0 56 24" fill="none" xmlns="http://www.w3.org/2000/svg">
<circle cx="28" cy="22" r="2" fill="#FF7122"/>
<path d="M2.457 13.804H5.512V15H0.975V5.965H2.457V13.804ZM9.85837 15.117C9.18237 15.117 8.57137 14.9653 8.02537 14.662C7.47937 14.35 7.05037 13.9167 6.73837 13.362C6.42637 12.7987 6.27037 12.1487 6.27037 11.412C6.27037 10.684 6.4307 10.0383 6.75137 9.475C7.07203 8.91167 7.5097 8.47833 8.06437 8.175C8.61903 7.87167 9.2387 7.72 9.92337 7.72C10.608 7.72 11.2277 7.87167 11.7824 8.175C12.337 8.47833 12.7747 8.91167 13.0954 9.475C13.416 10.0383 13.5764 10.684 13.5764 11.412C13.5764 12.14 13.4117 12.7857 13.0824 13.349C12.753 13.9123 12.3024 14.35 11.7304 14.662C11.167 14.9653 10.543 15.117 9.85837 15.117ZM9.85837 13.83C10.2397 13.83 10.595 13.739 10.9244 13.557C11.2624 13.375 11.5354 13.102 11.7434 12.738C11.9514 12.374 12.0554 11.932 12.0554 11.412C12.0554 10.892 11.9557 10.4543 11.7564 10.099C11.557 9.735 11.2927 9.462 10.9634 9.28C10.634 9.098 10.2787 9.007 9.89737 9.007C9.51603 9.007 9.1607 9.098 8.83137 9.28C8.5107 9.462 8.25503 9.735 8.06437 10.099C7.8737 10.4543 7.77837 10.892 7.77837 11.412C7.77837 12.1833 7.97337 12.7813 8.36337 13.206C8.76203 13.622 9.26037 13.83 9.85837 13.83ZM14.5474 11.412C14.5474 10.6753 14.6947 10.0297 14.9894 9.475C15.2927 8.91167 15.7087 8.47833 16.2374 8.175C16.7661 7.87167 17.3727 7.72 18.0574 7.72C18.9241 7.72 19.6391 7.928 20.2024 8.344C20.7744 8.75133 21.1601 9.33633 21.3594 10.099H19.7604C19.6304 9.74367 19.4224 9.46633 19.1364 9.267C18.8504 9.06767 18.4907 8.968 18.0574 8.968C17.4507 8.968 16.9654 9.18467 16.6014 9.618C16.2461 10.0427 16.0684 10.6407 16.0684 11.412C16.0684 12.1833 16.2461 12.7857 16.6014 13.219C16.9654 13.6523 17.4507 13.869 18.0574 13.869C18.9154 13.869 19.4831 13.492 19.7604 12.738H21.3594C21.1514 13.466 20.7614 14.0467 20.1894 14.48C19.6174 14.9047 18.9067 15.117 18.0574 15.117C17.3727 15.117 16.7661 14.9653 16.2374 14.662C15.7087 14.35 15.2927 13.9167 14.9894 13.362C14.6947 12.7987 14.5474 12.1487 14.5474 11.412ZM22.3423 11.386C22.3423 10.6667 22.4897 10.0297 22.7843 9.475C23.0877 8.92033 23.495 8.49133 24.0063 8.188C24.5263 7.876 25.0983 7.72 25.7223 7.72C26.2857 7.72 26.7753 7.83267 27.1913 8.058C27.616 8.27467 27.954 8.54767 28.2053 8.877V7.837H29.7003V15H28.2053V13.934C27.954 14.272 27.6117 14.5537 27.1783 14.779C26.745 15.0043 26.251 15.117 25.6963 15.117C25.081 15.117 24.5177 14.961 24.0063 14.649C23.495 14.3283 23.0877 13.8863 22.7843 13.323C22.4897 12.751 22.3423 12.1053 22.3423 11.386ZM28.2053 11.412C28.2053 10.918 28.1013 10.489 27.8933 10.125C27.694 9.761 27.4297 9.48367 27.1003 9.293C26.771 9.10233 26.4157 9.007 26.0343 9.007C25.653 9.007 25.2977 9.10233 24.9683 9.293C24.639 9.475 24.3703 9.748 24.1623 10.112C23.963 10.4673 23.8633 10.892 23.8633 11.386C23.8633 11.88 23.963 12.3133 24.1623 12.686C24.3703 13.0587 24.639 13.3447 24.9683 13.544C25.3063 13.7347 25.6617 13.83 26.0343 13.83C26.4157 13.83 26.771 13.7347 27.1003 13.544C27.4297 13.3533 27.694 13.076 27.8933 12.712C28.1013 12.3393 28.2053 11.906 28.2053 11.412ZM33.3759 9.046V13.011C33.3759 13.2797 33.4365 13.4747 33.5579 13.596C33.6879 13.7087 33.9045 13.765 34.2079 13.765H35.1179V15H33.9479C33.2805 15 32.7692 14.844 32.4139 14.532C32.0585 14.22 31.8809 13.713 31.8809 13.011V9.046H31.0359V7.837H31.8809V6.056H33.3759V7.837H35.1179V9.046H33.3759ZM37.2378 6.888C36.9691 6.888 36.7438 6.797 36.5618 6.615C36.3798 6.433 36.2888 6.20767 36.2888 5.939C36.2888 5.67033 36.3798 5.445 36.5618 5.263C36.7438 5.081 36.9691 4.99 37.2378 4.99C37.4978 4.99 37.7188 5.081 37.9008 5.263C38.0828 5.445 38.1738 5.67033 38.1738 5.939C38.1738 6.20767 38.0828 6.433 37.9008 6.615C37.7188 6.797 37.4978 6.888 37.2378 6.888ZM37.9658 7.837V15H36.4838V7.837H37.9658ZM43.0185 15.117C42.3425 15.117 41.7315 14.9653 41.1855 14.662C40.6395 14.35 40.2105 13.9167 39.8985 13.362C39.5865 12.7987 39.4305 12.1487 39.4305 11.412C39.4305 10.684 39.5909 10.0383 39.9115 9.475C40.2322 8.91167 40.6699 8.47833 41.2245 8.175C41.7792 7.87167 42.3989 7.72 43.0835 7.72C43.7682 7.72 44.3879 7.87167 44.9425 8.175C45.4972 8.47833 45.9349 8.91167 46.2555 9.475C46.5762 10.0383 46.7365 10.684 46.7365 11.412C46.7365 12.14 46.5719 12.7857 46.2425 13.349C45.9132 13.9123 45.4625 14.35 44.8905 14.662C44.3272 14.9653 43.7032 15.117 43.0185 15.117ZM43.0185 13.83C43.3999 13.83 43.7552 13.739 44.0845 13.557C44.4225 13.375 44.6955 13.102 44.9035 12.738C45.1115 12.374 45.2155 11.932 45.2155 11.412C45.2155 10.892 45.1159 10.4543 44.9165 10.099C44.7172 9.735 44.4529 9.462 44.1235 9.28C43.7942 9.098 43.4389 9.007 43.0575 9.007C42.6762 9.007 42.3209 9.098 41.9915 9.28C41.6709 9.462 41.4152 9.735 41.2245 10.099C41.0339 10.4543 40.9385 10.892 40.9385 11.412C40.9385 12.1833 41.1335 12.7813 41.5235 13.206C41.9222 13.622 42.4205 13.83 43.0185 13.83ZM51.8156 7.72C52.3789 7.72 52.8816 7.837 53.3236 8.071C53.7742 8.305 54.1252 8.65167 54.3766 9.111C54.6279 9.57033 54.7536 10.125 54.7536 10.775V15H53.2846V10.996C53.2846 10.3547 53.1242 9.865 52.8036 9.527C52.4829 9.18033 52.0452 9.007 51.4906 9.007C50.9359 9.007 50.4939 9.18033 50.1646 9.527C49.8439 9.865 49.6836 10.3547 49.6836 10.996V15H48.2016V7.837H49.6836V8.656C49.9262 8.36133 50.2339 8.13167 50.6066 7.967C50.9879 7.80233 51.3909 7.72 51.8156 7.72Z" fill="#0A0B2E"/>
</svg>
