<svg width="17" height="18" viewBox="0 0 17 18" fill="none" xmlns="http://www.w3.org/2000/svg">
<path d="M9.4942 16.4936C9.14724 16.8184 8.68351 17 8.20089 17C7.71828 17 7.25454 16.8184 6.90759 16.4936C3.73042 13.5008 -0.52739 10.1575 1.54901 5.30373C2.67171 2.67932 5.36668 1 8.20089 1C11.0351 1 13.7301 2.67933 14.8528 5.30373C16.9266 10.1514 12.6792 13.5111 9.4942 16.4936Z" stroke="#AAAAAA" stroke-width="1.5"/>
<path d="M11.0004 8.1999C11.0004 9.7463 9.74679 10.9999 8.20039 10.9999C6.65399 10.9999 5.40039 9.7463 5.40039 8.1999C5.40039 6.65351 6.65399 5.3999 8.20039 5.3999C9.74679 5.3999 11.0004 6.65351 11.0004 8.1999Z" stroke="#AAAAAA" stroke-width="1.5"/>
</svg>
