<svg width="42" height="24" viewBox="0 0 42 24" fill="none" xmlns="http://www.w3.org/2000/svg">
<circle cx="21.4014" cy="22" r="2" fill="#FF7122"/>
<path d="M7.69437 8.656C7.69437 9.11533 7.58603 9.54867 7.36937 9.956C7.1527 10.3633 6.80603 10.697 6.32937 10.957C5.8527 11.2083 5.2417 11.334 4.49637 11.334H2.85837V15H1.37637V5.965H4.49637C5.1897 5.965 5.7747 6.08633 6.25137 6.329C6.7367 6.563 7.09637 6.88367 7.33037 7.291C7.57303 7.69833 7.69437 8.15333 7.69437 8.656ZM4.49637 10.125C5.0597 10.125 5.48003 9.99933 5.75737 9.748C6.0347 9.488 6.17337 9.124 6.17337 8.656C6.17337 7.668 5.61437 7.174 4.49637 7.174H2.85837V10.125H4.49637ZM10.5898 8.877C10.8065 8.513 11.0925 8.23133 11.4478 8.032C11.8118 7.824 12.2408 7.72 12.7348 7.72V9.254H12.3578C11.7771 9.254 11.3351 9.40133 11.0318 9.696C10.7371 9.99067 10.5898 10.502 10.5898 11.23V15H9.10781V7.837H10.5898V8.877ZM17.2041 15.117C16.5281 15.117 15.9171 14.9653 15.3711 14.662C14.8251 14.35 14.3961 13.9167 14.0841 13.362C13.7721 12.7987 13.6161 12.1487 13.6161 11.412C13.6161 10.684 13.7764 10.0383 14.0971 9.475C14.4177 8.91167 14.8554 8.47833 15.4101 8.175C15.9647 7.87167 16.5844 7.72 17.2691 7.72C17.9537 7.72 18.5734 7.87167 19.1281 8.175C19.6827 8.47833 20.1204 8.91167 20.4411 9.475C20.7617 10.0383 20.9221 10.684 20.9221 11.412C20.9221 12.14 20.7574 12.7857 20.4281 13.349C20.0987 13.9123 19.6481 14.35 19.0761 14.662C18.5127 14.9653 17.8887 15.117 17.2041 15.117ZM17.2041 13.83C17.5854 13.83 17.9407 13.739 18.2701 13.557C18.6081 13.375 18.8811 13.102 19.0891 12.738C19.2971 12.374 19.4011 11.932 19.4011 11.412C19.4011 10.892 19.3014 10.4543 19.1021 10.099C18.9027 9.735 18.6384 9.462 18.3091 9.28C17.9797 9.098 17.6244 9.007 17.2431 9.007C16.8617 9.007 16.5064 9.098 16.1771 9.28C15.8564 9.462 15.6007 9.735 15.4101 10.099C15.2194 10.4543 15.1241 10.892 15.1241 11.412C15.1241 12.1833 15.3191 12.7813 15.7091 13.206C16.1077 13.622 16.6061 13.83 17.2041 13.83ZM25.3901 9.046H24.0641V15H22.5691V9.046H21.7241V7.837H22.5691V7.33C22.5691 6.50667 22.7858 5.90867 23.2191 5.536C23.6611 5.15467 24.3501 4.964 25.2861 4.964V6.199C24.8354 6.199 24.5191 6.28567 24.3371 6.459C24.1551 6.62367 24.0641 6.914 24.0641 7.33V7.837H25.3901V9.046ZM27.4575 6.888C27.1888 6.888 26.9635 6.797 26.7815 6.615C26.5995 6.433 26.5085 6.20767 26.5085 5.939C26.5085 5.67033 26.5995 5.445 26.7815 5.263C26.9635 5.081 27.1888 4.99 27.4575 4.99C27.7175 4.99 27.9385 5.081 28.1205 5.263C28.3025 5.445 28.3935 5.67033 28.3935 5.939C28.3935 6.20767 28.3025 6.433 28.1205 6.615C27.9385 6.797 27.7175 6.888 27.4575 6.888ZM28.1855 7.837V15H26.7035V7.837H28.1855ZM31.6133 5.38V15H30.1313V5.38H31.6133ZM40.124 11.243C40.124 11.5117 40.1067 11.7543 40.072 11.971H34.599C34.6423 12.543 34.8547 13.0023 35.236 13.349C35.6173 13.6957 36.0853 13.869 36.64 13.869C37.4373 13.869 38.0007 13.5353 38.33 12.868H39.929C39.7123 13.5267 39.318 14.0683 38.746 14.493C38.1827 14.909 37.4807 15.117 36.64 15.117C35.9553 15.117 35.34 14.9653 34.794 14.662C34.2567 14.35 33.832 13.9167 33.52 13.362C33.2167 12.7987 33.065 12.1487 33.065 11.412C33.065 10.6753 33.2123 10.0297 33.507 9.475C33.8103 8.91167 34.2307 8.47833 34.768 8.175C35.314 7.87167 35.938 7.72 36.64 7.72C37.316 7.72 37.9183 7.86733 38.447 8.162C38.9757 8.45667 39.3873 8.87267 39.682 9.41C39.9767 9.93867 40.124 10.5497 40.124 11.243ZM38.577 10.775C38.5683 10.229 38.3733 9.79133 37.992 9.462C37.6107 9.13267 37.1383 8.968 36.575 8.968C36.0637 8.968 35.626 9.13267 35.262 9.462C34.898 9.78267 34.6813 10.2203 34.612 10.775H38.577Z" fill="#0A0B2E"/>
</svg>
