<svg width="239" height="216" viewBox="0 0 239 216" fill="none" xmlns="http://www.w3.org/2000/svg">
<path d="M203.665 101.797C250.256 127.913 250.256 170.255 203.665 196.371C157.074 222.487 81.5341 222.487 34.9431 196.371C-11.6478 170.255 -11.6478 127.913 34.9437 101.797C81.5351 75.6812 157.074 75.6812 203.665 101.797Z" fill="#F1F4F8"/>
<path d="M58.4974 197.062L8.41648 167.762C7.84783 167.429 7.84783 166.89 8.41648 166.558L34.7546 151.148C35.3228 150.815 36.2449 150.815 36.8135 151.148L86.9235 180.465C87.4921 180.797 87.4916 181.336 86.923 181.668L60.5563 197.062C59.9877 197.395 59.0661 197.394 58.4974 197.062Z" fill="#E0E0E0"/>
<path d="M106.652 192.531C100.939 189.189 91.6785 189.189 85.9661 192.531C80.2542 195.873 80.2542 201.291 85.9661 204.633C91.6785 207.975 100.939 207.975 106.652 204.633C112.364 201.291 112.364 195.873 106.652 192.531Z" fill="#E0E0E0"/>
<path d="M218.482 123.491C229.323 129.834 229.323 140.117 218.482 146.46C207.641 152.802 190.065 152.802 179.223 146.46C168.382 140.117 168.382 129.834 179.223 123.491C190.065 117.149 207.641 117.149 218.482 123.491Z" fill="#E8EBEF"/>
<path d="M201.463 159.094L151.148 129.676L166.001 120.986C166.936 120.44 166.936 119.554 166.002 119.007L107.514 84.7365C106.581 84.1896 105.067 84.1897 104.134 84.737L20.9845 133.472C20.0514 134.019 20.0514 134.906 20.9845 135.454L79.3801 169.684C80.3138 170.231 81.8273 170.232 82.7615 169.685L94.9592 162.588L145.275 192.005L201.463 159.094Z" fill="#E0E0E0"/>
<path d="M24.0512 110.919C24.6599 106.705 22.9133 97.5293 19.388 91.4173C15.8631 85.3047 9.65589 80.2971 4.59441 81.2529C-0.119436 82.1429 -0.495026 88.1833 4.37971 92.9455C9.25551 97.7083 16.7246 103.89 18.132 111.082L21.9459 120.215L24.0512 110.919Z" fill="#B4FFE8"/>
<path d="M23.5246 116.731C23.3938 116.701 23.2936 116.585 23.2867 116.443C22.5799 101.644 12.785 88.247 6.28396 84.6436C6.13573 84.5613 6.08087 84.3721 6.1621 84.2213C6.24281 84.0711 6.42691 84.0123 6.57884 84.0978C13.2033 87.7696 23.1833 101.39 23.8997 116.413C23.9087 116.585 23.7778 116.73 23.6085 116.739C23.5795 116.74 23.5515 116.738 23.5246 116.731Z" fill="white"/>
<path d="M22.9554 130.397C22.6294 127.929 20.3389 123.596 16.1869 119.682C11.5938 115.352 5.36603 112.75 4.27725 109.749C2.96902 106.143 6.20372 103.4 11.3559 104.838C16.5087 106.276 24.6878 114.9 24.5844 126.043L22.9554 130.397Z" fill="#B4FFE8"/>
<path d="M24.3299 128.062C24.2159 128.036 24.122 127.944 24.0972 127.82C21.5246 114.85 12.8702 109.148 8.65379 107.944C8.49079 107.898 8.39531 107.726 8.4412 107.56C8.48709 107.395 8.65009 107.297 8.82048 107.346C13.4826 108.676 22.0732 114.459 24.6997 127.697C24.7334 127.866 24.6253 128.03 24.4591 128.064C24.4148 128.073 24.371 128.072 24.3299 128.062Z" fill="white"/>
<path d="M83.8627 165.489L159.04 121.507C160.751 120.506 162.138 118.071 162.138 116.07V89.3144C162.138 87.312 160.751 84.8777 159.04 83.877L107.112 53.4967C105.4 52.4955 102.627 52.4955 100.916 53.4967L25.7382 97.4785C24.0275 98.4797 22.6401 100.914 22.6401 102.916V129.671C22.6401 131.673 24.0275 134.108 25.7382 135.109L77.6665 165.489C79.3777 166.491 82.1514 166.491 83.8627 165.489Z" fill="#27DEBF"/>
<path d="M80.7646 163.677V136.922C80.7646 134.92 79.3778 132.485 77.6665 131.484L25.7382 101.104C24.0275 100.103 22.6401 100.915 22.6401 102.916V129.672C22.6401 131.673 24.0275 134.108 25.7382 135.109L77.6665 165.49C79.3778 166.49 80.7646 165.68 80.7646 163.677Z" fill="#263238"/>
<path d="M160.701 85.4258L79.3331 133.03C78.8515 132.384 78.2786 131.843 77.6672 131.486L25.7431 101.109C24.1943 100.199 22.9188 100.766 22.6841 102.362C22.8924 100.489 24.1812 98.3918 25.7431 97.482L100.915 53.4921C102.62 52.4898 105.406 52.4898 107.111 53.4921L159.035 83.8826C159.659 84.2386 160.219 84.7796 160.701 85.4258Z" fill="#27DEBF"/>
<path d="M160.701 85.4258L79.3331 133.03C78.8515 132.384 78.2786 131.843 77.6672 131.486L25.7431 101.109C24.1943 100.199 22.9188 100.766 22.6841 102.362C22.8924 100.489 24.1812 98.3918 25.7431 97.482L100.915 53.4921C102.62 52.4898 105.406 52.4898 107.111 53.4921L159.035 83.8826C159.659 84.2386 160.219 84.7796 160.701 85.4258Z" fill="#455A64"/>
<path d="M162.133 89.3169V116.067C162.133 118.072 160.754 120.512 159.035 121.501L83.8634 165.491C82.2883 166.401 79.8412 166.48 78.1362 165.715C79.6196 166.335 80.7653 165.491 80.7653 163.671V136.921C80.7653 135.628 80.1925 134.164 79.3332 133.029L160.701 85.4259C161.573 86.5736 162.133 88.0372 162.133 89.3169Z" fill="#37474F"/>
<path d="M146.087 98.3082V105.385C146.087 106.991 144.98 108.936 143.612 109.739L101.39 134.45C100.021 135.253 98.9094 134.605 98.9094 133.004V125.927C98.9094 124.591 98.4906 123.314 97.7378 122.262L144.926 94.6529C145.669 95.7001 146.087 96.9766 146.087 98.3082Z" fill="#D7CCEF"/>
<path d="M144.926 94.6525L97.7376 122.261C97.2407 121.548 96.5914 120.94 95.8133 120.486L60.7031 99.9439C59.3353 99.1459 59.3353 97.8443 60.7031 97.0462L102.925 72.3299C104.294 71.5323 106.513 71.5323 107.881 72.3299L142.991 92.8719C143.769 93.3257 144.424 93.9341 144.926 94.6525Z" fill="#EBE1FF"/>
<path d="M98.1245 94.7006C94.7157 96.6945 94.7162 99.9274 98.1245 101.922C101.533 103.916 107.06 103.916 110.469 101.922C113.879 99.9285 113.879 96.695 110.469 94.7006C107.06 92.7068 101.533 92.7068 98.1245 94.7006Z" fill="#FAFAFA"/>
<path d="M92.1382 149.38C92.1382 148.003 93.0925 146.328 94.2693 145.639L151.98 111.876C153.158 111.187 154.111 111.745 154.111 113.122V124.385L92.1382 160.65V149.38Z" fill="#263238"/>
<path d="M94.1592 152.667V149.267L152.283 115.262V118.662L94.1592 152.667Z" fill="black"/>
<path d="M40.0774 95.8911L98.2013 61.8859L101.046 63.5559L42.9307 97.5615L40.0774 95.8911Z" fill="#263238"/>
<path d="M41.4247 96.6938L33.0742 59.2735L91.1976 25.2684L99.5487 62.6887L41.4247 96.6938Z" fill="#37474F"/>
<path d="M33.0743 59.2735L31.7271 58.4701L40.077 95.8904L41.4248 96.6938L33.0743 59.2735Z" fill="#263238"/>
<path d="M31.7271 58.47L33.0743 59.2734L91.1977 25.2683L89.851 24.4649L31.7271 58.47Z" fill="#455A64"/>
<path d="M43.1094 95.707L33.0176 50.4535L86.2504 19.3114L96.3423 64.5644L43.1094 95.707Z" fill="#E0E0E0"/>
<path d="M44.5901 96.5869L34.4983 51.3339L87.7306 20.1912L97.823 65.4443L44.5901 96.5869Z" fill="#FAFAFA"/>
<path d="M34.4983 51.3338L33.0181 50.4539L43.4549 97.2539L44.5901 96.5868L34.4983 51.3338Z" fill="#E0E0E0"/>
<path d="M33.0181 50.4536L34.4983 51.3335L87.7311 20.1909L86.2509 19.311L33.0181 50.4536Z" fill="#EBEBEB"/>
<path d="M88.7134 123.438V122.76C88.714 122.497 88.5436 122.234 88.2002 122.034L86.8038 121.217C86.1197 120.816 85.0103 120.816 84.3261 121.217L79.0563 124.3C78.7123 124.502 78.542 124.765 78.5435 125.029H78.5425V125.717H78.5446C78.5488 125.975 78.7181 126.233 79.0563 126.431L80.4521 127.248C81.1368 127.648 82.2456 127.648 82.9303 127.248L88.2002 124.165C88.5404 123.966 88.7108 123.706 88.7129 123.445H88.7134V123.442V123.438Z" fill="#263238"/>
<path d="M80.4518 126.566L79.056 125.75C78.3713 125.349 78.3713 124.7 79.056 124.3L84.3259 121.217C85.01 120.816 86.1194 120.816 86.8036 121.217L88.1999 122.033C88.8841 122.434 88.8841 123.083 88.1999 123.483L82.9295 126.566C82.2454 126.967 81.136 126.967 80.4518 126.566Z" fill="#37474F"/>
<path d="M81.7662 125.997C81.3843 125.997 81.0024 125.912 80.7112 125.741C80.4696 125.6 80.314 125.416 80.2607 125.21C80.219 125.048 80.2444 124.882 80.3346 124.729C80.3667 124.675 80.4364 124.657 80.4902 124.689C80.544 124.722 80.5619 124.793 80.5297 124.847C80.4707 124.947 80.4543 125.05 80.4807 125.152C80.5181 125.297 80.6368 125.432 80.8252 125.542C81.3442 125.845 82.1882 125.846 82.7068 125.542C82.9368 125.408 83.0634 125.235 83.0634 125.058C83.0634 124.88 82.9368 124.708 82.7068 124.574C82.3507 124.365 81.809 124.293 81.3268 124.391C81.2635 124.401 81.2055 124.362 81.1934 124.3C81.1812 124.237 81.2208 124.177 81.2825 124.165C81.8237 124.056 82.4124 124.135 82.8207 124.374C83.1241 124.552 83.2907 124.794 83.2907 125.058C83.2907 125.321 83.1241 125.564 82.8207 125.741C82.5301 125.912 82.1482 125.997 81.7662 125.997Z" fill="#FAFAFA"/>
<path d="M81.8156 125.202C81.7961 125.202 81.7766 125.197 81.7587 125.187L80.4599 124.427C80.4056 124.395 80.3871 124.324 80.4188 124.269C80.4504 124.215 80.5195 124.196 80.5739 124.228L81.8726 124.987C81.927 125.019 81.9454 125.09 81.9143 125.145C81.8927 125.181 81.8547 125.202 81.8156 125.202Z" fill="#FAFAFA"/>
<path d="M73.5229 125.065L85.1002 118.264C85.4526 118.057 85.4526 117.722 85.0992 117.515L78.3813 113.585C78.0284 113.378 77.4561 113.379 77.1037 113.586L65.5264 120.386C65.1735 120.594 65.174 120.929 65.5269 121.135L72.2448 125.066C72.5982 125.273 73.1706 125.272 73.5229 125.065Z" fill="#263238"/>
<path d="M78.3816 114.557C78.0286 114.35 77.4563 114.351 77.1034 114.558L65.717 121.247L72.245 125.066C72.5979 125.273 73.1703 125.272 73.5232 125.065L84.9095 118.377L78.3816 114.557Z" fill="#27DEBF"/>
<g opacity="0.399994">
<g opacity="0.399994">
<path opacity="0.399994" d="M70.7117 122.905L71.1649 122.64C71.6048 122.382 71.5616 122.083 71.0409 121.777C70.5661 121.5 70.075 121.488 69.6346 121.745L69.182 122.01L70.7117 122.905ZM69.5275 121.557C70.1774 121.177 70.9897 121.148 71.5536 121.477C72.1608 121.833 72.1344 122.323 71.4851 122.703L70.9249 123.03L71.6734 123.468L71.1775 123.758L68.4719 122.174L69.5275 121.557Z" fill="black"/>
</g>
<g opacity="0.399994">
<path opacity="0.399994" d="M71.7511 120.506L72.9269 121.194L73.4951 120.861C73.8111 120.677 73.7731 120.408 73.4096 120.196C73.0419 119.981 72.6532 119.979 72.2987 120.186L71.7511 120.506ZM71.0369 120.674L72.1573 120.018C72.7339 119.681 73.4487 119.619 73.9176 119.894C74.3243 120.131 74.3496 120.461 74.0199 120.784C74.2004 120.749 74.4478 120.749 74.5548 120.756L75.8794 120.862L75.5809 121.266L74.3069 121.121C73.8158 121.074 73.5974 121.051 73.2941 121.229L73.1395 121.319L74.2426 121.964L73.7425 122.257L71.0369 120.674Z" fill="black"/>
</g>
<g opacity="0.399994">
<path opacity="0.399994" d="M74.1416 118.857L76.8472 120.44L76.3508 120.73L73.6458 119.148L74.1416 118.857Z" fill="black"/>
</g>
<g opacity="0.399994">
<path opacity="0.399994" d="M75.1041 118.295L78.3989 118.613L78.5145 118.626L78.5192 118.622L77.7026 118.145C77.3392 117.932 76.6645 117.622 76.4588 117.502L76.8132 117.295L79.5189 118.877L79.177 119.077L75.8178 118.753L75.638 118.728L75.6337 118.73L76.5316 119.255L77.7026 119.941L77.3777 120.131C77.172 120.01 76.6212 119.638 76.2583 119.426L74.7153 118.523L75.1041 118.295Z" fill="black"/>
</g>
<g opacity="0.399994">
<path opacity="0.399994" d="M79.4861 115.731L79.7599 115.891C79.58 115.996 79.0672 116.226 78.8109 116.376L81.3023 117.834L80.8022 118.126L78.3108 116.669C78.0544 116.819 77.6609 117.118 77.4815 117.224L77.2078 117.064L79.4861 115.731Z" fill="black"/>
</g>
</g>
<path d="M95.2969 151.242C101.116 152.326 106.071 154.73 109.94 157.249C114.996 160.538 119.16 165.054 122.164 170.326C125.518 176.213 130.342 181.101 136.151 184.5L145.276 189.838V187.487L136.151 182.148C130.342 178.75 126.081 173.503 122.728 167.616C119.723 162.343 114.996 158.187 109.94 154.897C106.421 152.607 102.003 150.41 96.8536 149.215L95.3185 150.114L95.2969 151.242Z" fill="#E0E0E0"/>
<g opacity="0.0500031">
<g opacity="0.0500031">
<path opacity="0.0500031" d="M95.2969 151.242C101.116 152.326 106.071 154.73 109.94 157.249C114.996 160.538 119.16 165.054 122.164 170.326C125.518 176.213 130.342 181.101 136.151 184.5L145.276 189.838V187.487L136.151 182.148C130.342 178.75 126.081 173.503 122.728 167.616C119.723 162.343 114.996 158.187 109.94 154.897C106.421 152.607 102.003 150.41 96.8536 149.215L95.3185 150.114L95.2969 151.242Z" fill="black"/>
</g>
</g>
<path d="M198.377 156.379L145.276 187.487V189.838L198.377 158.717V156.379Z" fill="#EBEBEB"/>
<path d="M145.276 187.487L136.151 182.148C130.342 178.75 126.081 173.503 122.727 167.616C119.723 162.343 114.996 158.187 109.94 154.897C106.42 152.607 102.003 150.41 96.8535 149.215L149.938 118.103C155.094 119.297 159.518 121.496 163.041 123.789C168.097 127.079 172.675 131.439 175.68 136.711C179.034 142.598 183.443 147.641 189.251 151.04L198.377 156.379L145.276 187.487Z" fill="#FAFAFA"/>
<path d="M106.882 149.094C106.712 149.094 106.547 149.004 106.455 148.845C106.319 148.606 106.4 148.301 106.636 148.163L137.745 129.907C137.98 129.769 138.282 129.85 138.418 130.09C138.554 130.328 138.473 130.633 138.238 130.771L107.127 149.027C107.05 149.072 106.966 149.094 106.882 149.094Z" fill="#E0E0E0"/>
<path d="M111.924 151.556C111.754 151.556 111.589 151.467 111.497 151.307C111.361 151.068 111.442 150.763 111.677 150.626L142.787 132.369C143.021 132.232 143.323 132.313 143.46 132.552C143.596 132.791 143.515 133.096 143.279 133.234L112.169 151.489C112.092 151.534 112.007 151.556 111.924 151.556Z" fill="#E0E0E0"/>
<path d="M116.5 154.528C116.33 154.528 116.165 154.439 116.073 154.278C115.937 154.04 116.018 153.735 116.254 153.597L147.364 135.34C147.598 135.203 147.899 135.284 148.036 135.523C148.172 135.762 148.092 136.067 147.856 136.205L116.746 154.461C116.668 154.506 116.584 154.528 116.5 154.528Z" fill="#E0E0E0"/>
<path d="M120.952 158.183C120.782 158.183 120.616 158.094 120.525 157.934C120.389 157.695 120.47 157.39 120.705 157.252L151.815 138.997C152.05 138.859 152.351 138.94 152.487 139.179C152.623 139.418 152.543 139.723 152.307 139.86L121.197 158.116C121.12 158.162 121.035 158.183 120.952 158.183Z" fill="#E0E0E0"/>
<path d="M124.814 162.428C124.644 162.428 124.478 162.338 124.387 162.179C124.251 161.94 124.332 161.635 124.567 161.497L155.677 143.24C155.911 143.102 156.213 143.184 156.349 143.423C156.485 143.662 156.405 143.967 156.169 144.105L125.059 162.361C124.982 162.406 124.897 162.428 124.814 162.428Z" fill="#E0E0E0"/>
<path d="M127.918 167.28C127.748 167.28 127.582 167.191 127.491 167.031C127.355 166.792 127.436 166.487 127.671 166.349L158.782 148.093C159.015 147.956 159.317 148.036 159.454 148.276C159.59 148.515 159.509 148.819 159.273 148.957L128.163 167.213C128.086 167.258 128.001 167.28 127.918 167.28Z" fill="#E0E0E0"/>
<path d="M131.215 172.026C131.046 172.026 130.88 171.937 130.788 171.777C130.653 171.538 130.733 171.234 130.969 171.096L162.079 152.839C162.313 152.701 162.614 152.783 162.751 153.022C162.887 153.261 162.806 153.566 162.57 153.704L131.461 171.96C131.383 172.005 131.299 172.026 131.215 172.026Z" fill="#E0E0E0"/>
<path d="M143.493 127.619C143.324 127.619 143.158 127.529 143.066 127.37C142.93 127.132 143.01 126.827 143.246 126.689L151.213 122.01C151.448 121.872 151.749 121.952 151.885 122.191C152.021 122.429 151.942 122.735 151.705 122.873L143.739 127.552C143.661 127.597 143.576 127.619 143.493 127.619Z" fill="#E0E0E0"/>
<path d="M148.534 130.081C148.364 130.081 148.199 129.992 148.108 129.832C147.971 129.594 148.052 129.289 148.287 129.151L156.254 124.472C156.489 124.333 156.79 124.415 156.926 124.654C157.063 124.892 156.983 125.196 156.747 125.335L148.781 130.014C148.703 130.06 148.618 130.081 148.534 130.081Z" fill="#E0E0E0"/>
<path d="M153.111 133.053C152.941 133.053 152.776 132.963 152.684 132.804C152.548 132.566 152.629 132.261 152.864 132.123L160.831 127.444C161.065 127.306 161.367 127.387 161.503 127.626C161.639 127.864 161.559 128.169 161.324 128.307L153.357 132.985C153.279 133.031 153.195 133.053 153.111 133.053Z" fill="#E0E0E0"/>
<path d="M157.563 136.709C157.393 136.709 157.227 136.62 157.136 136.46C157 136.222 157.08 135.917 157.315 135.779L165.282 131.099C165.517 130.962 165.818 131.043 165.955 131.281C166.091 131.52 166.011 131.824 165.775 131.963L157.809 136.642C157.731 136.687 157.646 136.709 157.563 136.709Z" fill="#E0E0E0"/>
<path d="M161.424 140.953C161.255 140.953 161.089 140.863 160.998 140.704C160.862 140.466 160.941 140.161 161.177 140.023L169.144 135.344C169.379 135.206 169.681 135.287 169.817 135.525C169.953 135.763 169.873 136.068 169.637 136.207L161.67 140.886C161.593 140.931 161.507 140.953 161.424 140.953Z" fill="#E0E0E0"/>
<path d="M164.529 145.806C164.36 145.806 164.194 145.716 164.103 145.557C163.967 145.319 164.046 145.013 164.282 144.876L172.249 140.196C172.484 140.058 172.786 140.14 172.922 140.378C173.058 140.616 172.978 140.921 172.742 141.059L164.775 145.738C164.698 145.784 164.612 145.806 164.529 145.806Z" fill="#E0E0E0"/>
<path d="M167.826 150.551C167.656 150.551 167.491 150.462 167.4 150.303C167.263 150.064 167.344 149.76 167.579 149.621L175.546 144.942C175.781 144.804 176.082 144.886 176.218 145.124C176.355 145.362 176.275 145.667 176.039 145.806L168.072 150.484C167.995 150.53 167.91 150.551 167.826 150.551Z" fill="#E0E0E0"/>
<path d="M176.271 152.661C176.709 152.483 177.143 152.356 177.571 152.279C177.999 152.201 178.402 152.162 178.782 152.162C179.16 152.163 179.502 152.194 179.809 152.259C180.116 152.323 180.367 152.404 180.565 152.501C180.663 152.55 180.709 152.61 180.701 152.681C180.693 152.752 180.648 152.811 180.565 152.86L179.77 153.325C179.641 153.401 179.52 153.443 179.406 153.451C179.292 153.46 179.167 153.456 179.031 153.438C178.728 153.394 178.392 153.398 178.02 153.451C177.649 153.505 177.236 153.664 176.782 153.93C176.585 154.045 176.418 154.167 176.282 154.296C176.146 154.424 176.051 154.55 175.997 154.674C175.945 154.799 175.937 154.916 175.975 155.027C176.013 155.137 176.104 155.235 176.248 155.319C176.422 155.421 176.606 155.48 176.799 155.495C176.992 155.511 177.221 155.487 177.486 155.425C177.751 155.363 178.064 155.267 178.423 155.136C178.783 155.006 179.216 154.845 179.724 154.655C180.277 154.446 180.777 154.289 181.223 154.183C181.671 154.076 182.087 154.019 182.473 154.01C182.859 154.001 183.217 154.042 183.547 154.133C183.876 154.224 184.195 154.36 184.506 154.542C184.802 154.714 185.021 154.91 185.165 155.126C185.309 155.344 185.376 155.575 185.364 155.821C185.353 156.067 185.26 156.321 185.086 156.582C184.912 156.844 184.654 157.105 184.313 157.366L185.086 157.817C185.169 157.867 185.211 157.927 185.211 157.998C185.21 158.069 185.169 158.128 185.086 158.177L184.166 158.715C184.082 158.764 183.98 158.788 183.859 158.788C183.738 158.788 183.636 158.764 183.552 158.715L182.78 158.263C182.386 158.432 181.977 158.567 181.553 158.668C181.128 158.771 180.714 158.834 180.309 158.858C179.904 158.882 179.513 158.865 179.139 158.805C178.764 158.745 178.425 158.636 178.122 158.476C178.024 158.427 177.978 158.368 177.986 158.296C177.993 158.226 178.039 158.166 178.122 158.117L178.918 157.652C179.046 157.576 179.168 157.533 179.281 157.519C179.395 157.505 179.52 157.512 179.656 157.538C179.807 157.566 179.971 157.585 180.144 157.599C180.319 157.612 180.508 157.604 180.712 157.572C180.917 157.541 181.14 157.483 181.383 157.399C181.624 157.316 181.89 157.189 182.177 157.02C182.405 156.888 182.608 156.749 182.786 156.605C182.963 156.461 183.092 156.319 183.171 156.18C183.251 156.04 183.282 155.908 183.263 155.781C183.244 155.655 183.147 155.541 182.973 155.439C182.807 155.341 182.617 155.292 182.405 155.292C182.194 155.292 181.941 155.333 181.65 155.415C181.358 155.498 181.019 155.611 180.633 155.757C180.246 155.904 179.792 156.068 179.27 156.25C178.8 156.418 178.361 156.548 177.952 156.641C177.543 156.735 177.154 156.782 176.787 156.785C176.42 156.787 176.068 156.743 175.731 156.652C175.394 156.561 175.055 156.415 174.714 156.216C174.419 156.044 174.203 155.851 174.066 155.638C173.93 155.425 173.863 155.202 173.862 154.967C173.863 154.732 173.936 154.494 174.084 154.253C174.231 154.011 174.441 153.775 174.714 153.545L173.942 153.093C173.859 153.044 173.817 152.984 173.817 152.913C173.817 152.842 173.858 152.783 173.942 152.734L174.862 152.196C174.945 152.147 175.047 152.122 175.169 152.122C175.29 152.122 175.392 152.147 175.476 152.196L176.271 152.661Z" fill="#9E93B6"/>
<path d="M152.641 169.235L158.248 172.516L159.054 172.044L153.446 168.764L152.641 169.235Z" fill="#455A64"/>
<path d="M158.865 165.594L164.472 168.874L165.277 168.403L159.671 165.123L158.865 165.594Z" fill="#455A64"/>
<path d="M164.088 162.538L169.695 165.818L170.218 165.514L164.61 162.233L164.088 162.538Z" fill="#455A64"/>
<path d="M155.837 167.365L161.444 170.646L161.847 170.41L156.24 167.13L155.837 167.365Z" fill="#455A64"/>
<path d="M160.229 164.796L165.836 168.077L166.239 167.841L160.632 164.56L160.229 164.796Z" fill="#455A64"/>
<path d="M163.06 163.139L168.667 166.42L169.07 166.184L163.463 162.904L163.06 163.139Z" fill="#455A64"/>
<path d="M154.072 168.398L159.678 171.679L161.11 170.841L155.503 167.561L154.072 168.398Z" fill="#455A64"/>
<path d="M156.933 166.724L162.54 170.005L163.971 169.167L158.364 165.887L156.933 166.724Z" fill="#455A64"/>
<path d="M161.226 164.212L166.833 167.493L167.811 166.921L162.204 163.641L161.226 164.212Z" fill="#455A64"/>
<path d="M139.361 177.005L144.968 180.285L145.773 179.814L140.166 176.534L139.361 177.005Z" fill="#455A64"/>
<path d="M145.584 173.363L151.192 176.644L151.997 176.172L146.39 172.892L145.584 173.363Z" fill="#455A64"/>
<path d="M150.808 170.308L156.415 173.588L157.221 173.117L151.613 169.836L150.808 170.308Z" fill="#455A64"/>
<path d="M142.557 175.135L148.164 178.416L148.567 178.18L142.96 174.9L142.557 175.135Z" fill="#455A64"/>
<path d="M146.917 172.582L152.524 175.862L152.927 175.627L147.32 172.347L146.917 172.582Z" fill="#455A64"/>
<path d="M149.78 170.909L155.387 174.189L155.79 173.954L150.183 170.674L149.78 170.909Z" fill="#455A64"/>
<path d="M140.791 176.168L146.398 179.449L147.456 178.83L141.849 175.55L140.791 176.168Z" fill="#455A64"/>
<path d="M143.652 174.494L149.259 177.774L150.425 177.094L144.817 173.813L143.652 174.494Z" fill="#455A64"/>
<path d="M147.997 171.952L153.604 175.233L154.707 174.594L149.1 171.314L147.997 171.952Z" fill="#455A64"/>
<path d="M165.416 161.761L171.023 165.042L171.828 164.571L166.221 161.29L165.416 161.761Z" fill="#455A64"/>
<path d="M166.884 160.903L172.491 164.184L172.894 163.948L167.287 160.668L166.884 160.903Z" fill="#455A64"/>
<path d="M169.61 159.307L175.218 162.588L175.621 162.352L170.013 159.072L169.61 159.307Z" fill="#455A64"/>
<path d="M168.057 160.217L173.665 163.497L174.816 162.823L169.208 159.543L168.057 160.217Z" fill="#455A64"/>
<path d="M109.084 194.525C108.438 193.42 107.364 192.383 105.859 191.502C100.586 188.417 92.0373 188.417 86.7643 191.502C85.2588 192.383 84.1848 193.42 83.5391 194.525H82.8096V197.32H82.8191C82.9167 199.263 84.2291 201.19 86.7643 202.673C92.0373 205.758 100.586 205.758 105.859 202.673C108.394 201.19 109.716 199.263 109.813 197.32V194.525H109.084Z" fill="#BDDADC"/>
<g opacity="0.100006">
<g opacity="0.100006">
<path opacity="0.100006" d="M96.3123 189.188C92.8566 189.188 89.4008 189.959 86.7643 191.502C85.2588 192.383 84.1848 193.42 83.5391 194.524H82.8096V197.32H82.8191C82.9161 199.263 84.2291 201.189 86.7643 202.673C89.4008 204.215 92.8566 204.987 96.3123 204.987V189.188Z" fill="black"/>
</g>
</g>
<g opacity="0.100006">
<g opacity="0.100006">
<path opacity="0.100006" d="M88.9372 190.471C88.1686 190.765 87.439 191.107 86.7638 191.502C85.2583 192.383 84.1848 193.42 83.5391 194.524H82.8096V197.32H82.8185C82.9161 199.264 84.2286 201.19 86.7638 202.673C87.439 203.068 88.1686 203.411 88.9372 203.705V190.471Z" fill="black"/>
</g>
</g>
<g opacity="0.5">
<g opacity="0.5">
<path opacity="0.5" d="M103.686 190.471C104.454 190.765 105.184 191.107 105.859 191.502C107.364 192.383 108.438 193.42 109.084 194.524H109.814V197.32C109.716 199.263 108.394 201.19 105.859 202.673C105.184 203.068 104.454 203.411 103.686 203.705V190.471Z" fill="#27DEBF"/>
</g>
</g>
<path d="M105.858 188.94C100.586 185.855 92.0369 185.855 86.7639 188.94C81.4914 192.025 81.4914 197.027 86.7639 200.112C92.0369 203.196 100.586 203.196 105.858 200.112C111.131 197.027 111.131 192.025 105.858 188.94Z" fill="#A6C4C6"/>
<path d="M102.529 190.984C100.859 190.118 98.6518 189.64 96.3107 189.64C93.9717 189.64 91.7625 190.118 90.0945 190.984C88.3273 191.902 87.3535 193.162 87.3535 194.527C87.3535 195.892 88.3273 197.149 90.0945 198.067C91.7625 198.936 93.9717 199.414 96.3107 199.414C98.6518 199.414 100.859 198.936 102.529 198.067C104.295 197.149 105.267 195.892 105.267 194.527C105.267 193.162 104.295 191.902 102.529 190.984Z" fill="#27DEBF"/>
<g opacity="0.399994">
<g opacity="0.399994">
<path opacity="0.399994" d="M102.529 190.984C100.859 190.118 98.6518 189.64 96.3107 189.64C93.9717 189.64 91.7625 190.118 90.0945 190.984C88.3273 191.902 87.3535 193.162 87.3535 194.527C87.3535 195.892 88.3273 197.149 90.0945 198.067C91.7625 198.936 93.9717 199.414 96.3107 199.414C98.6518 199.414 100.859 198.936 102.529 198.067C104.295 197.149 105.267 195.892 105.267 194.527C105.267 193.162 104.295 191.902 102.529 190.984Z" fill="black"/>
</g>
</g>
<path d="M102.529 198.067C100.859 198.936 98.652 199.413 96.3109 199.413C93.9719 199.413 91.7627 198.936 90.0947 198.067C88.3275 197.149 87.3537 195.892 87.3537 194.527C87.3537 193.161 88.3275 191.902 90.0947 190.984C91.7627 190.118 93.9719 189.64 96.3109 189.64C98.652 189.64 100.859 190.118 102.529 190.984C104.295 191.902 105.268 193.161 105.268 194.527C105.268 195.892 104.295 197.149 102.529 198.067ZM105.565 189.456C103.103 188.016 99.8157 187.22 96.3109 187.22C92.8061 187.22 89.5213 188.016 87.0594 189.456C84.6972 190.838 83.3984 192.636 83.3984 194.527C83.3984 196.414 84.6972 198.215 87.0594 199.597C89.5213 201.035 92.8061 201.83 96.3109 201.83C99.8157 201.83 103.103 201.035 105.565 199.597C107.925 198.215 109.226 196.414 109.226 194.527C109.226 192.636 107.925 190.838 105.565 189.456Z" fill="#C3E3E5"/>
<g opacity="0.199997">
<g opacity="0.199997">
<path opacity="0.199997" d="M102.316 197.648C105.633 195.924 105.633 193.127 102.316 191.403C98.9996 189.678 93.6232 189.678 90.3067 191.403C86.9902 193.127 86.9902 195.924 90.3067 197.648C93.6232 199.373 98.9996 199.373 102.316 197.648Z" fill="black"/>
</g>
</g>
<path d="M102.316 197.648C105.633 195.924 105.633 193.127 102.316 191.403C98.9996 189.678 93.6232 189.678 90.3067 191.403C86.9902 193.127 86.9902 195.924 90.3067 197.648C93.6232 199.373 98.9996 199.373 102.316 197.648Z" fill="#27DEBF"/>
<g opacity="0.600006">
<g opacity="0.600006">
<path opacity="0.600006" d="M102.316 197.648C105.633 195.924 105.633 193.127 102.316 191.403C98.9996 189.678 93.6232 189.678 90.3067 191.403C86.9902 193.127 86.9902 195.924 90.3067 197.648C93.6232 199.373 98.9996 199.373 102.316 197.648Z" fill="black"/>
</g>
</g>
<path d="M102.316 192.573C98.9994 190.848 93.623 190.848 90.3065 192.573C88.935 193.286 88.1326 194.182 87.8953 195.11C88.1326 196.038 88.935 196.935 90.3065 197.648C93.623 199.373 98.9994 199.373 102.316 197.648C103.687 196.935 104.49 196.039 104.727 195.111C104.49 194.182 103.687 193.286 102.316 192.573Z" fill="#27DEBF"/>
<g opacity="0.5">
<g opacity="0.5">
<path opacity="0.5" d="M102.316 192.573C98.9994 190.848 93.623 190.848 90.3065 192.573C88.935 193.286 88.1326 194.182 87.8953 195.11C88.1326 196.038 88.935 196.935 90.3065 197.648C93.623 199.373 98.9994 199.373 102.316 197.648C103.687 196.935 104.49 196.039 104.727 195.111C104.49 194.182 103.687 193.286 102.316 192.573Z" fill="black"/>
</g>
</g>
<path d="M97.1155 191.47V192.732L96.6903 193.187L95.9043 194.021V192.708L97.1155 191.47Z" fill="#27DEBF"/>
<g opacity="0.300003">
<g opacity="0.300003">
<path opacity="0.300003" d="M97.1155 191.47V192.732L96.6903 193.187L95.9043 194.021V192.708L97.1155 191.47Z" fill="black"/>
</g>
</g>
<path d="M95.9042 192.706V193.451C95.3914 193.632 95.0048 193.755 94.6951 193.799C94.5021 193.824 94.3327 193.824 94.1782 193.779C94.0906 193.755 94.0136 193.72 93.9313 193.677C93.6317 193.495 93.5831 193.226 94.1539 192.892C94.7584 192.535 95.382 192.501 95.9042 192.706Z" fill="#27DEBF"/>
<g opacity="0.449997">
<g opacity="0.449997">
<path opacity="0.449997" d="M95.9042 192.706V193.451C95.3914 193.632 95.0048 193.755 94.6951 193.799C94.5021 193.824 94.3327 193.824 94.1782 193.779C94.0906 193.755 94.0136 193.72 93.9313 193.677C93.6317 193.495 93.5831 193.226 94.1539 192.892C94.7584 192.535 95.382 192.501 95.9042 192.706Z" fill="black"/>
</g>
</g>
<path d="M101.541 196.29V197.379L100.179 198.175L99.1719 197.585C98.1016 198.054 96.7053 198.317 95.2715 197.763V196.673L95.8908 196.051L95.2715 196.224C94.2945 196.452 93.2717 196.48 92.233 195.872C91.6227 195.515 91.3394 195.124 91.3405 194.723V193.662L91.4507 193.199L91.0793 192.98V191.889L92.0869 192.48C91.5953 192.866 91.3341 193.263 91.3405 193.65V193.662C91.3515 194.054 91.638 194.434 92.233 194.783C93.5581 195.558 94.87 195.302 96.0722 194.911C97.1906 194.541 98.0045 194.107 98.6497 194.484C99.0495 194.719 98.9282 195.003 98.4788 195.267C97.7619 195.685 96.9838 195.558 96.5586 195.38L95.2715 196.673C95.5094 196.766 95.7478 196.835 95.9826 196.884C97.161 197.135 98.2799 196.887 99.1719 196.496L100.179 197.086L101.541 196.29Z" fill="#27DEBF"/>
<g opacity="0.350006">
<g opacity="0.350006">
<path opacity="0.350006" d="M91.3401 193.65V193.662C91.3512 194.054 91.6371 194.434 92.2326 194.783C93.5578 195.558 94.8697 195.302 96.0719 194.911C97.1902 194.541 98.0042 194.107 98.6488 194.484C99.0492 194.719 98.9278 195.003 98.4784 195.267C97.7615 195.685 96.9834 195.558 96.5582 195.38L95.2711 196.673C95.509 196.766 95.7475 196.835 95.9822 196.884C97.1607 197.135 98.2795 196.887 99.1715 196.496L100.179 197.086L101.541 196.29V197.379L100.179 198.175L99.1715 197.585C98.1012 198.054 96.7049 198.317 95.2711 197.763V196.673L95.8899 196.051L95.2711 196.224C94.2942 196.452 93.2713 196.48 92.2326 195.872C91.6223 195.515 91.339 195.124 91.3401 194.723V193.662L91.4503 193.199" fill="black"/>
</g>
</g>
<g opacity="0.449997">
<g opacity="0.449997">
<path opacity="0.449997" d="M91.0793 191.889V192.98L91.4512 193.199L91.4491 193.202C91.5683 192.961 91.7836 192.718 92.0869 192.479L91.0793 191.889Z" fill="black"/>
</g>
</g>
<path d="M101.315 195.578C101.315 195.779 101.277 195.955 101.214 196.098L100.532 195.7C100.532 195.7 101.219 195.416 101.305 194.652C101.31 194.951 101.315 195.549 101.315 195.578Z" fill="#27DEBF"/>
<g opacity="0.300003">
<g opacity="0.300003">
<path opacity="0.300003" d="M101.315 195.578C101.315 195.779 101.277 195.955 101.214 196.098L100.532 195.7C100.532 195.7 101.219 195.416 101.305 194.652C101.31 194.951 101.315 195.549 101.315 195.578Z" fill="black"/>
</g>
</g>
<path d="M101.313 196.158L100.533 195.7C100.533 195.7 101.313 195.375 101.313 194.489C101.313 194.452 101.31 194.417 101.306 194.383C101.272 194.007 100.999 193.641 100.436 193.313V193.31C99.8355 192.961 99.221 192.831 98.6238 192.831C98.5732 192.831 98.5194 192.835 98.4687 192.835H98.4519C98.398 192.838 98.3437 192.841 98.2899 192.845C98.2424 192.848 98.1955 192.851 98.148 192.858C98.128 192.862 98.1074 192.862 98.091 192.865C98.0536 192.869 98.0167 192.872 97.9829 192.879C97.6791 192.92 97.3858 192.988 97.102 193.063C96.9637 193.101 96.8255 193.142 96.6905 193.186C96.4948 193.248 96.3022 193.313 96.1203 193.374C96.0459 193.402 95.9752 193.426 95.9045 193.45C95.3912 193.631 95.0067 193.758 94.6965 193.798C94.5003 193.826 94.332 193.822 94.1769 193.778C94.0925 193.754 94.0113 193.72 93.9337 193.675C93.6304 193.497 93.5829 193.227 94.1532 192.892C94.7603 192.537 95.3812 192.499 95.9045 192.708L97.1157 191.47C95.9514 191.087 94.6997 191.152 93.4616 191.675L92.4525 191.087L91.0793 191.891L92.0879 192.479C91.5958 192.865 91.3326 193.265 91.3389 193.652V193.662C91.3526 194.055 91.6359 194.434 92.233 194.783C93.5592 195.559 94.8716 195.303 96.0728 194.91C97.19 194.541 98.0029 194.106 98.6476 194.483C99.049 194.718 98.9277 195.002 98.4788 195.266C97.7635 195.686 96.9838 195.559 96.5591 195.378L95.2699 196.674C95.5094 196.767 95.7489 196.835 95.982 196.886C96.4062 196.976 96.8229 197.001 97.2249 196.978C97.937 196.938 98.6006 196.746 99.1703 196.496L100.179 197.088L101.539 196.291L101.313 196.158Z" fill="#27DEBF"/>
<path d="M99.1711 196.496V197.586L100.18 198.176V197.086L99.1711 196.496Z" fill="#27DEBF"/>
<g opacity="0.449997">
<g opacity="0.449997">
<path opacity="0.449997" d="M99.1711 196.496V197.586L100.18 198.176V197.086L99.1711 196.496Z" fill="black"/>
</g>
</g>
<path d="M91.0793 191.891L92.453 191.087L93.4616 191.675L92.462 191.251L91.0793 191.891Z" fill="#F5F5F5"/>
<path d="M94.1533 192.892C94.7605 192.537 95.3819 192.499 95.9047 192.708L97.1158 191.47L95.9047 192.58C95.9047 192.58 94.9383 192.206 94.1533 192.892Z" fill="#F5F5F5"/>
<path d="M95.2698 196.674C95.5093 196.767 95.7488 196.835 95.9819 196.886C96.406 196.976 96.8228 197.001 97.2247 196.978C97.2247 196.978 96.2552 197.004 95.4734 196.623L96.559 195.378L95.2698 196.674Z" fill="#F5F5F5"/>
<path d="M99.1711 196.496L100.18 196.957L101.539 196.291L100.18 197.086L99.1711 196.496Z" fill="#F5F5F5"/>
<path d="M87.1622 189.64C90.7367 187.439 96.3104 187.221 96.3104 187.221C92.8056 187.221 89.5207 188.016 87.0588 189.457C84.6972 190.838 83.3984 192.636 83.3984 194.527C83.3984 194.527 83.5261 191.878 87.1622 189.64Z" fill="#F5F5F5"/>
<path d="M95.2698 202.401C99.0636 202.572 102.957 201.809 105.859 200.111C108.876 198.346 110.167 195.953 109.731 193.65C109.731 193.65 110.294 197.402 105.631 199.97C100.967 202.538 95.2698 202.401 95.2698 202.401Z" fill="#F5F5F5"/>
<path d="M109.89 190.683C109.244 189.578 108.171 188.541 106.665 187.66C101.392 184.576 92.8432 184.576 87.5707 187.66C86.0652 188.541 84.9912 189.578 84.3455 190.683H83.616V193.478H83.6255C83.7225 195.422 85.035 197.348 87.5707 198.831C92.8437 201.916 101.393 201.916 106.665 198.831C109.2 197.348 110.523 195.422 110.619 193.478V190.683H109.89Z" fill="#BDDADC"/>
<g opacity="0.100006">
<g opacity="0.100006">
<path d="M97.1187 185.347C93.663 185.347 90.2072 186.118 87.5707 187.661C86.0647 188.541 84.9912 189.579 84.3455 190.683H83.616V193.479H83.6255C83.7225 195.422 85.035 197.349 87.5707 198.832C90.2072 200.374 93.663 201.146 97.1187 201.146V185.347Z" fill="#B4FFE8"/>
</g>
</g>
<g opacity="0.100006">
<g opacity="0.100006">
<path opacity="0.100006" d="M89.7436 186.629C88.975 186.923 88.2455 187.266 87.5702 187.66C86.0647 188.541 84.9912 189.579 84.345 190.683H83.6155V193.478H83.625C83.7226 195.422 85.035 197.348 87.5702 198.832C88.2455 199.226 88.975 199.569 89.7436 199.863V186.629Z" fill="black"/>
</g>
</g>
<g opacity="0.5">
<g opacity="0.5">
<path opacity="0.5" d="M104.492 186.629C105.26 186.923 105.99 187.266 106.665 187.66C108.171 188.541 109.244 189.579 109.89 190.683H110.619V193.478C110.522 195.421 109.2 197.348 106.665 198.832C105.99 199.226 105.26 199.569 104.492 199.863V186.629Z" fill="#27DEBF"/>
</g>
</g>
<path d="M106.665 185.098C101.392 182.014 92.8431 182.014 87.5706 185.098C82.2981 188.183 82.2981 193.184 87.5706 196.269C92.8436 199.354 101.392 199.354 106.665 196.269C111.938 193.184 111.938 188.183 106.665 185.098Z" fill="#A6C4C6"/>
<path d="M103.335 187.143C101.665 186.276 99.4582 185.799 97.1171 185.799C94.7781 185.799 92.5689 186.276 90.9009 187.143C89.1337 188.06 88.1599 189.32 88.1599 190.685C88.1599 192.05 89.1337 193.307 90.9009 194.225C92.5689 195.094 94.7781 195.572 97.1171 195.572C99.4582 195.572 101.665 195.094 103.335 194.225C105.1 193.307 106.074 192.05 106.074 190.685C106.074 189.32 105.1 188.06 103.335 187.143Z" fill="#27DEBF"/>
<g opacity="0.399994">
<g opacity="0.399994">
<path opacity="0.399994" d="M103.335 187.143C101.665 186.276 99.4582 185.799 97.1171 185.799C94.7781 185.799 92.5689 186.276 90.9009 187.143C89.1337 188.06 88.1599 189.32 88.1599 190.685C88.1599 192.05 89.1337 193.307 90.9009 194.225C92.5689 195.094 94.7781 195.572 97.1171 195.572C99.4582 195.572 101.665 195.094 103.335 194.225C105.1 193.307 106.074 192.05 106.074 190.685C106.074 189.32 105.1 188.06 103.335 187.143Z" fill="black"/>
</g>
</g>
<path d="M103.336 194.225C101.665 195.094 99.4584 195.572 97.1173 195.572C94.7783 195.572 92.5691 195.094 90.9011 194.225C89.1339 193.307 88.1601 192.05 88.1601 190.685C88.1601 189.32 89.1339 188.06 90.9011 187.142C92.5691 186.276 94.7783 185.799 97.1173 185.799C99.4584 185.799 101.665 186.276 103.336 187.142C105.101 188.06 106.074 189.32 106.074 190.685C106.074 192.05 105.101 193.307 103.336 194.225ZM106.371 185.615C103.91 184.174 100.622 183.379 97.1173 183.379C93.612 183.379 90.3277 184.174 87.8658 185.615C85.5036 186.996 84.2048 188.794 84.2048 190.685C84.2048 192.572 85.5036 194.374 87.8658 195.755C90.3277 197.193 93.612 197.988 97.1173 197.988C100.622 197.988 103.91 197.193 106.371 195.755C108.731 194.374 110.032 192.572 110.032 190.685C110.032 188.794 108.731 186.996 106.371 185.615Z" fill="#C3E3E5"/>
<g opacity="0.199997">
<g opacity="0.199997">
<path opacity="0.199997" d="M103.123 193.806C106.439 192.082 106.439 189.285 103.123 187.561C99.8062 185.837 94.4298 185.837 91.1133 187.561C87.7969 189.285 87.7969 192.082 91.1133 193.806C94.4298 195.531 99.8062 195.531 103.123 193.806Z" fill="black"/>
</g>
</g>
<path d="M103.123 193.806C106.439 192.082 106.439 189.285 103.123 187.561C99.8062 185.837 94.4298 185.837 91.1133 187.561C87.7969 189.285 87.7969 192.082 91.1133 193.806C94.4298 195.531 99.8062 195.531 103.123 193.806Z" fill="#A6C4C6"/>
<path d="M103.122 188.731C99.8058 187.006 94.4294 187.006 91.1129 188.731C89.7414 189.444 88.939 190.34 88.7017 191.268C88.939 192.196 89.7414 193.093 91.1129 193.806C94.4294 195.53 99.8058 195.53 103.122 193.806C104.494 193.093 105.296 192.196 105.534 191.268C105.296 190.34 104.494 189.444 103.122 188.731Z" fill="#ADCCCE"/>
<path d="M97.9221 187.628V188.89L97.4969 189.345L96.7109 190.179V188.866L97.9221 187.628Z" fill="#8CA6A8"/>
<path d="M96.7108 188.864V189.61C96.1981 189.79 95.8114 189.913 95.5018 189.957C95.3087 189.982 95.1394 189.982 94.9848 189.938C94.8972 189.913 94.8202 189.879 94.7379 189.835C94.4383 189.653 94.3898 189.384 94.9605 189.051C95.5651 188.693 96.1886 188.659 96.7108 188.864Z" fill="#7D9496"/>
<path d="M102.347 192.448V193.538L100.985 194.333L99.9778 193.743C98.908 194.213 97.5117 194.475 96.0779 193.921V192.831L96.6967 192.209L96.0779 192.382C95.1009 192.611 94.0781 192.638 93.0394 192.03C92.4291 191.674 92.1458 191.283 92.1469 190.881V189.82L92.2571 189.357L91.8857 189.138V188.048L92.8933 188.638C92.4016 189.024 92.1405 189.422 92.1469 189.808V189.82C92.1579 190.212 92.4444 190.592 93.0394 190.941C94.364 191.716 95.6764 191.46 96.8786 191.07C97.997 190.7 98.8109 190.266 99.4561 190.642C99.8554 190.877 99.7341 191.162 99.2852 191.425C98.5683 191.844 97.7902 191.716 97.365 191.538L96.0779 192.831C96.3158 192.924 96.5542 192.993 96.789 193.043C97.9674 193.293 99.0863 193.045 99.9778 192.654L100.985 193.245L102.347 192.448Z" fill="#8CA6A8"/>
<g opacity="0.449997">
<g opacity="0.449997">
<path opacity="0.449997" d="M91.8853 188.048V189.137L92.2566 189.357L92.255 189.36C92.3737 189.118 92.5895 188.876 92.8928 188.638L91.8853 188.048Z" fill="black"/>
</g>
</g>
<path d="M102.121 191.736C102.121 191.937 102.083 192.114 102.02 192.256L101.338 191.859C101.338 191.859 102.025 191.575 102.111 190.81C102.117 191.109 102.121 191.707 102.121 191.736Z" fill="#27DEBF"/>
<g opacity="0.300003">
<g opacity="0.300003">
<path opacity="0.300003" d="M102.121 191.736C102.121 191.937 102.083 192.114 102.02 192.256L101.338 191.859C101.338 191.859 102.025 191.575 102.111 190.81C102.117 191.109 102.121 191.707 102.121 191.736Z" fill="black"/>
</g>
</g>
<path d="M102.119 192.316L101.34 191.858C101.34 191.858 102.119 191.533 102.119 190.648C102.119 190.61 102.116 190.576 102.113 190.541C102.079 190.166 101.806 189.799 101.242 189.471V189.468C100.641 189.119 100.027 188.989 99.4302 188.989C99.3796 188.989 99.3258 188.993 99.2751 188.993H99.2583C99.2044 188.996 99.1501 188.999 99.0963 189.003C99.0488 189.007 99.0019 189.009 98.9544 189.017C98.9344 189.02 98.9138 189.02 98.8974 189.023C98.86 189.027 98.8225 189.03 98.7893 189.037C98.4854 189.078 98.1922 189.147 97.9083 189.221C97.7701 189.259 97.6319 189.3 97.4969 189.344C97.3012 189.406 97.1086 189.471 96.9266 189.533C96.8523 189.56 96.7816 189.584 96.7109 189.608C96.1976 189.789 95.8131 189.916 95.5029 189.956C95.3067 189.984 95.1384 189.981 94.9833 189.936C94.8989 189.912 94.8177 189.878 94.7401 189.834C94.4368 189.656 94.3893 189.386 94.9596 189.051C95.5667 188.695 96.1876 188.658 96.7109 188.866L97.9221 187.628C96.7578 187.245 95.5061 187.31 94.268 187.833L93.2589 187.245L91.8857 188.049L92.8943 188.637C92.4016 189.023 92.1389 189.424 92.1453 189.81V189.82C92.159 190.213 92.4423 190.593 93.0394 190.942C94.3656 191.718 95.678 191.461 96.8792 191.068C97.9964 190.699 98.8093 190.264 99.454 190.641C99.8554 190.876 99.7341 191.16 99.2852 191.424C98.5698 191.844 97.7902 191.718 97.365 191.537L96.0763 192.832C96.3158 192.925 96.5553 192.993 96.7884 193.044C97.2126 193.134 97.6293 193.159 98.0313 193.137C98.7434 193.096 99.407 192.904 99.9767 192.654L100.986 193.246L102.346 192.45L102.119 192.316Z" fill="#9EBBBD"/>
<path d="M99.9773 192.654V193.744L100.986 194.333V193.245L99.9773 192.654Z" fill="#27DEBF"/>
<g opacity="0.449997">
<g opacity="0.449997">
<path opacity="0.449997" d="M99.9773 192.654V193.744L100.986 194.333V193.245L99.9773 192.654Z" fill="black"/>
</g>
</g>
<path d="M91.8853 188.049L93.2589 187.245L94.2675 187.833L93.2673 187.41L91.8853 188.049Z" fill="#F5F5F5"/>
<path d="M94.9592 189.051C95.5664 188.695 96.1873 188.657 96.7106 188.866L97.9217 187.628L96.7106 188.739C96.7106 188.739 95.7442 188.364 94.9592 189.051Z" fill="#F5F5F5"/>
<path d="M96.0767 192.832C96.3162 192.925 96.5556 192.993 96.7888 193.044C97.2129 193.134 97.6297 193.159 98.0316 193.137C98.0316 193.137 97.0621 193.163 96.2803 192.782L97.3654 191.537L96.0767 192.832Z" fill="#F5F5F5"/>
<path d="M99.9773 192.654L100.986 193.115L102.345 192.449L100.986 193.245L99.9773 192.654Z" fill="#F5F5F5"/>
<path d="M87.9689 185.799C91.5433 183.598 97.117 183.379 97.117 183.379C93.6122 183.379 90.3274 184.174 87.8655 185.615C85.5033 186.997 84.2051 188.794 84.2051 190.685C84.2051 190.685 84.3327 188.037 87.9689 185.799Z" fill="#F5F5F5"/>
<path d="M96.0757 198.56C99.8696 198.73 103.763 197.967 106.664 196.27C109.682 194.504 110.973 192.111 110.537 189.809C110.537 189.809 111.1 193.561 106.437 196.129C101.773 198.696 96.0757 198.56 96.0757 198.56Z" fill="#F5F5F5"/>
<path d="M84.2584 175.039L34.6997 146.047L9.92139 160.543L59.4801 189.536L84.2584 175.039Z" fill="#C3E3E5"/>
<g opacity="0.399994">
<g opacity="0.399994">
<path opacity="0.399994" d="M46.1645 160.729C43.1772 160.729 40.2648 161.363 38.0714 162.646C35.9967 163.86 34.8536 165.496 34.8536 167.252C34.8536 169.184 36.2642 171.118 38.7239 172.557C43.6963 175.466 51.4945 175.638 56.1076 172.939C58.1823 171.724 59.3254 170.089 59.3254 168.333C59.3254 166.401 57.9148 164.466 55.4556 163.027C52.847 161.502 49.4609 160.729 46.1645 160.729ZM48.0155 175.299C44.6384 175.299 41.1716 174.509 38.5019 172.946C35.9012 171.425 34.4094 169.349 34.4094 167.252C34.4094 165.328 35.6317 163.554 37.8493 162.257C42.5853 159.486 50.5824 159.657 55.6777 162.638C58.2783 164.159 59.7696 166.236 59.7696 168.333C59.7696 170.256 58.5478 172.031 56.3297 173.328C54.0756 174.647 51.082 175.299 48.0155 175.299Z" fill="black"/>
</g>
</g>
<g opacity="0.199997">
<g opacity="0.199997">
<path opacity="0.199997" d="M48.0139 173.679C44.8045 173.679 41.63 172.899 39.3047 171.538C37.2142 170.315 36.0151 168.753 36.0151 167.252C36.0151 165.934 36.952 164.66 38.6522 163.666C40.5918 162.531 43.26 161.906 46.165 161.906C49.3749 161.906 52.5489 162.686 54.8748 164.047C56.9658 165.27 58.1648 166.833 58.1648 168.334C58.1648 169.651 57.228 170.925 55.5273 171.919C53.5881 173.054 50.92 173.679 48.0139 173.679Z" fill="black"/>
</g>
</g>
<path opacity="0.3" d="M56.8708 184.564L43.2478 176.546L44.3392 176.689C45.3067 176.815 46.2952 176.879 47.2775 176.879C50.8398 176.879 54.6051 175.609 56.7553 174.351C59.166 172.941 61.5984 170.418 61.5984 167.958C61.5984 167.123 61.4127 166.29 61.0471 165.482L60.7559 164.838L75.674 173.613L74.0382 174.572C73.7607 174.734 73.6077 174.935 73.6077 175.139C73.6072 175.344 73.7602 175.546 74.0382 175.709L75.6761 176.665L62.0879 184.564L60.6736 183.738C60.0158 183.353 58.9439 183.351 58.2845 183.734L56.8708 184.564Z" fill="#A7ECD7"/>
<path d="M62.8674 178.961C62.0592 178.961 61.2305 178.772 60.5927 178.399C59.9397 178.017 59.5657 177.485 59.5657 176.938C59.5657 176.431 59.8774 175.97 60.4429 175.64C61.5792 174.974 63.4967 175.013 64.7158 175.727C65.3683 176.109 65.7428 176.641 65.7428 177.188C65.7428 177.695 65.4316 178.156 64.8661 178.487C64.3238 178.804 63.6038 178.961 62.8674 178.961Z" fill="#ADCCCE"/>
<g opacity="0.199997">
<g opacity="0.199997">
<path opacity="0.199997" d="M33.458 170.731L18.5679 162.041L20.2048 161.084C20.4818 160.922 20.6337 160.719 20.6332 160.515C20.6332 160.311 20.4812 160.11 20.2053 159.949L18.5669 158.987L32.1319 151.159L33.5456 151.988C34.1918 152.365 35.2848 152.366 35.931 151.988L37.3447 151.159L50.9646 159.102L49.8605 158.957C48.8978 158.831 47.9076 158.767 46.9196 158.767C43.6918 158.767 39.8367 159.755 37.3263 161.225C34.1892 163.06 32.5987 165.028 32.5987 167.075C32.5987 167.931 32.8129 169.295 33.1716 170.093L33.458 170.731Z" fill="black"/>
</g>
</g>
<path d="M31.6804 160.788C30.8723 160.788 30.0435 160.599 29.4058 160.226C28.7527 159.844 28.3782 159.312 28.3782 158.766C28.3782 158.259 28.6899 157.797 29.2554 157.466C30.3922 156.801 32.3092 156.841 33.5283 157.555C34.1808 157.936 34.5553 158.468 34.5553 159.015C34.5553 159.522 34.2441 159.983 33.6786 160.314C33.1363 160.631 32.4168 160.788 31.6804 160.788Z" fill="#ADCCCE"/>
<path d="M84.2583 175.04V181.144L59.4795 195.641L59.48 189.536L84.2583 175.04Z" fill="#ADCCCE"/>
<g opacity="0.100006">
<g opacity="0.100006">
<path opacity="0.100006" d="M59.4799 190.897L67.3034 186.486L59.4783 191.267L59.4799 190.897Z" fill="black"/>
</g>
<g opacity="0.100006">
<path opacity="0.100006" d="M84.2578 177.939L81.6487 179.619L84.2567 178.247L84.2578 177.939Z" fill="black"/>
</g>
<g opacity="0.100006">
<path opacity="0.100006" d="M84.2573 179.394L71.2183 187.247L84.2573 179.843V179.394Z" fill="black"/>
</g>
<g opacity="0.100006">
<path opacity="0.100006" d="M59.4785 192.35L72.5202 184.96L59.4785 192.829V192.35Z" fill="black"/>
</g>
</g>
<path d="M59.4796 195.641L9.9209 166.648V160.544L59.4796 189.536V195.641Z" fill="#A2BCBD"/>
<g opacity="0.300003">
<g opacity="0.300003">
<path opacity="0.300003" d="M59.4799 190.897L56.8677 189.536L59.4783 191.267L59.4799 190.897Z" fill="black"/>
</g>
</g>
<g opacity="0.300003">
<g opacity="0.300003">
<path opacity="0.300003" d="M59.4786 192.35L46.3662 184.923L59.4786 192.829V192.35Z" fill="black"/>
</g>
</g>
<g opacity="0.300003">
<g opacity="0.300003">
<path opacity="0.300003" d="M9.9209 163.417L19.0506 168.937L9.92143 163.775L9.9209 163.417Z" fill="black"/>
</g>
</g>
<g opacity="0.300003">
<g opacity="0.300003">
<path opacity="0.300003" d="M9.92041 164.951L15.138 168.174L9.92094 165.293L9.92041 164.951Z" fill="black"/>
</g>
</g>
<path d="M63.338 161.786L37.6967 176.791L30.3315 172.485L55.9713 157.478L63.338 161.786Z" fill="#455A64"/>
<path d="M30.3315 172.485V179.125L37.6967 183.433V176.791L30.3315 172.485Z" fill="#37474F"/>
<path d="M37.6965 183.433L38.1544 183.164L37.6965 182.896V183.433Z" fill="#263238"/>
<path d="M63.3381 161.787V162.801L62.4724 162.293L63.3381 161.787Z" fill="#263238"/>
<g opacity="0.300003">
<g opacity="0.300003">
<path opacity="0.300003" d="M38.1544 183.161V177.06L37.6965 176.791V182.893L38.1544 183.161Z" fill="black"/>
</g>
</g>
<g opacity="0.199997">
<g opacity="0.199997">
<path opacity="0.199997" d="M38.1544 177.061L62.9311 162.562L62.4727 162.293L37.6965 176.792L38.1544 177.061Z" fill="black"/>
</g>
</g>
<path d="M57.2203 158.208L31.5753 173.21L31.177 172.98L56.8194 157.979L57.2203 158.208Z" fill="#FAFAFA"/>
<path d="M31.5752 173.211V179.85L31.1748 179.619L31.1769 172.98L31.5752 173.211Z" fill="#E0E0E0"/>
<path d="M62.5049 161.289L36.8594 176.291L36.4617 176.06L62.104 161.059L62.5049 161.289Z" fill="#FAFAFA"/>
<path d="M36.8599 176.291V182.93L36.4595 182.699L36.4621 176.06L36.8599 176.291Z" fill="#E0E0E0"/>
<path d="M191.422 24.7338C187.543 24.4002 185.716 25.4661 184.004 29.1379C182.523 32.3142 178.597 42.6731 178.293 44.4051C178.022 45.9547 180.737 53.9082 180.737 53.9082L186.368 52.8204L184.23 45.9526L189.598 33.5939L191.422 24.7338Z" fill="#FFA8A7"/>
<path d="M192.128 24.7333C189.203 24.2383 187.043 23.6209 185.106 26.0296C183.169 28.4382 178.807 41.4678 178.276 42.9816C177.744 44.4949 178 45.602 179.122 48.7285C179.122 48.7285 182.756 46.9105 185.024 48.0684L184.348 45.7923L190.153 33.3496L192.128 24.7333Z" fill="#FFA75C"/>
<path d="M211.697 126.715C212.035 128.342 212.23 129.088 212.486 131.111C212.698 132.774 212.828 134.006 213.306 136.847C213.741 139.438 214.071 141.418 212.264 143.366C210.676 145.08 207.872 145.738 206.951 143.79C205.897 141.562 206.035 137.949 206.177 135.698C206.319 133.446 206.287 132.789 206.305 130.996C206.32 129.417 206.398 128.771 206.484 127.409C208.19 127.317 209.991 126.849 211.697 126.715Z" fill="#37474F"/>
<path d="M211.698 126.715C211.673 124.598 211.7 121.783 211.888 118.051C212.108 113.706 212.139 110.319 212.122 105.717C212.109 102.229 211.929 99.1503 210.711 92.4701C212.001 79.0583 212.473 65.1959 210.909 60.1001C209.567 55.7259 208.201 54.2666 206.993 52.1274C206.364 51.0203 205.218 49.375 205.218 47.89C205.218 47.89 201.05 49.7262 195.657 49.7754C189.521 49.8331 187.376 48.1445 187.376 48.1445C187.376 48.1445 184.608 80.64 185.185 91.246C185.527 97.5226 186.025 106.813 186.209 111.377C186.351 114.899 186.752 119.481 186.715 121.423C186.683 123.079 186.35 124.458 185.739 126.371C185.173 128.144 184.548 129.721 183.729 131.39C183.522 131.811 183.299 132.231 182.986 132.578C182.59 133.017 182.3 133.328 181.613 133.928C180.622 134.794 180.127 135.221 180.211 136.024C180.297 136.832 180.886 137.148 181.556 137.351C183.146 137.834 184.947 137.634 186.538 137.346C188.174 137.05 189.911 136.299 190.589 134.761C190.787 134.313 190.88 133.826 190.969 133.344C191.262 131.76 191.529 130.142 192.187 128.661C192.471 128.023 192.676 127.422 193.073 126.846C193.493 126.236 194.002 125.57 194.079 124.804C194.144 124.166 193.659 123.267 193.027 122.301C193.023 122.295 193.018 122.288 193.013 122.281C192.464 121.444 192.615 120.864 192.807 118.227C193.223 112.521 194.368 108.417 195.332 101.486C195.811 98.0432 195.705 95.2866 195.134 91.4582C195.787 86.9167 196.919 82.1528 197.587 79.0188C198.665 85.5771 199.359 87.9751 199.947 92.9367C200.761 99.8158 204.579 114.215 205.186 117.917C205.793 121.619 206.175 124.104 206.458 127.113C206.703 129.721 206.894 134.971 207.217 137.361C207.734 141.183 211.622 140.015 212.251 136.642C212.67 134.397 211.731 129.643 211.698 126.715Z" fill="#FFA8A7"/>
<path d="M192.807 135.099L192.222 135.012C192.184 133.147 192.29 131.442 191.833 130.564L192.668 128.276L192.807 135.099Z" fill="#263238"/>
<path d="M194.248 126.609C194.117 127.888 193.401 129.199 193.348 131.717C193.296 134.235 193.414 134.936 193.414 134.936L192.807 135.099L192.668 128.276L194.248 126.609Z" fill="#263238"/>
<path d="M180.371 136.814C180.371 136.814 180.399 137.56 180.716 137.803C181.034 138.047 181.7 138.785 184.938 138.591C188.177 138.397 189.31 137.588 190.417 136.565C191.523 135.542 191.814 132.856 191.98 131.589C192.3 129.133 193.308 127.847 194.249 126.61C194.513 126.005 194.344 125.335 194.344 125.335C194.344 125.335 192.468 125.652 191.309 128.656C190.149 131.66 188.442 134.681 185.824 135.515C183.205 136.348 180.371 136.814 180.371 136.814Z" fill="#263238"/>
<path d="M194.06 123.467C193.601 122.643 193.178 122.411 192.733 121.7C192.266 122.04 191.886 122.776 191.689 123.431C191.491 124.087 190.972 127.308 190.189 129.871C189.603 131.794 188.617 132.813 187.261 133.338C186.415 133.665 185.491 133.765 184.593 133.642C184.588 133.641 184.584 133.64 184.58 133.64C182.898 133.405 183.291 132.178 183.291 132.178C182.9 132.72 181.297 134.048 180.347 135.023C179.807 135.577 180.061 136.418 180.47 136.959C180.938 137.368 182.035 138.188 186.055 137.596C189.624 137.071 190.46 135.4 190.797 134.647C191.056 134.072 191.278 132.839 191.538 131.253C191.746 129.989 192.157 128.761 192.791 127.652C192.87 127.512 192.949 127.382 193.024 127.27C193.264 126.912 193.549 126.516 193.87 126.122C194.119 125.817 194.314 125.673 194.388 125.382C194.462 124.678 194.461 124.187 194.06 123.467Z" fill="#37474F"/>
<path d="M186.32 113.6C186.276 112.836 186.237 112.085 186.209 111.378C186.024 106.813 185.526 97.5228 185.185 91.2461C184.608 80.6402 187.375 48.1447 187.375 48.1447C187.375 48.1447 189.52 49.8333 195.656 49.7761C201.05 49.7264 205.217 47.8902 205.217 47.8902C205.217 49.3757 206.364 51.0205 206.992 52.1276C208.201 54.2668 209.566 55.7261 210.908 60.1003C212.472 65.1961 212.001 79.0585 210.71 92.4702C211.929 99.1505 212.178 102.48 212.191 105.968C212.208 110.57 212.146 112.921 211.926 117.267C209.748 118.917 205.186 117.917 205.186 117.917C204.579 114.215 200.761 99.816 199.946 92.9369C199.359 87.9753 198.664 85.5778 197.586 79.0195L195.133 91.4584C195.704 95.2868 195.81 98.0434 195.332 101.486C194.631 106.527 193.833 110.072 193.291 113.826C192.32 114.859 187.77 115.129 186.32 113.6Z" fill="#1A2E35"/>
<path d="M187.223 47.1341L187.161 50.7487C187.161 50.7487 189.511 52.5715 193.825 52.8633C198.138 53.1547 204.193 51.435 205.87 50.1511C205.87 50.1511 205.092 48.6746 205.416 46.6546C205.416 46.6546 200.768 49.3663 194.728 49.0745C188.689 48.7832 187.223 47.1341 187.223 47.1341Z" fill="#37474F"/>
<path d="M197.586 79.0193L195.06 63.9467C195.06 63.9467 191.126 62.93 189.034 59.65C189.362 60.6908 190.112 63.6131 193.609 65.1195L196.433 79.2304L195.351 90.0405L197.586 79.0193Z" fill="#37474F"/>
<path d="M186.483 41.1817C186.576 42.9847 187.375 48.1452 187.375 48.1452C194.637 53.1266 205.218 47.8902 205.218 47.8902L207.198 35.6785C207.198 35.6785 202.854 31.1669 206.411 25.5034L200.649 25.1287L194.582 24.8561L191.421 24.7337C189.203 26.3828 185.288 30.9077 184.576 32.7561C183.849 34.6426 183.257 37.3319 186.483 41.1817Z" fill="#FFA75C"/>
<path d="M193.609 40.8809C194.236 41.7068 197.152 42.7235 199.551 41.6432C201.949 40.5634 202.764 38.53 202.889 37.1957C202.889 37.1957 203.574 40.9445 199.877 42.4696C196.18 43.9941 193.797 41.7068 193.609 40.8809Z" fill="#263238"/>
<path d="M206.794 10.5461C206.794 10.5209 206.797 10.499 206.797 10.4734C206.797 10.4199 206.793 10.3686 206.793 10.3162C206.792 10.2783 206.792 10.2376 206.792 10.2002H206.79C206.64 3.40507 200.998 0.0775242 195.348 0.0775242H195.348C191.551 0.0775242 188.231 2.10612 186.425 5.13272C183.156 5.98425 183.993 10.5749 187.264 11.3965L187.276 11.4382C187.276 12.5731 187.279 13.771 187.286 14.8529C187.309 18.3093 185.068 19.558 185.068 19.558C185.068 19.558 188.541 24.0433 198.078 23.566C207.35 23.102 206.829 14.7177 206.794 10.5461Z" fill="#263238"/>
<path d="M204.132 0.386624L203.593 3.2999C204.413 3.4779 205.199 2.97008 205.348 2.16559C205.497 1.36057 204.953 0.564627 204.132 0.386624Z" fill="#263238"/>
<path d="M206.793 2.81265L203.831 3.13605C203.895 3.96834 204.61 4.57024 205.428 4.48097C206.247 4.3917 206.857 3.64494 206.793 2.81265Z" fill="#263238"/>
<path d="M200.645 25.5035V17.0107C200.645 17.0107 201.725 18.0969 203.304 16.9241C204.719 15.8726 205.312 13.6147 204.32 12.4515C203.617 11.6273 201.441 11.1745 200.589 12.9481C200.589 12.9481 198.068 12.8252 194.777 10.4577C191.428 8.04796 190.703 6.00012 188.685 5.76599C187.738 6.49831 186.818 8.65628 186.915 14.3497C186.987 18.5625 188.85 20.5745 189.8 21.2972C190.576 21.8868 191.565 21.9697 193.242 21.6922V25.6832L191.388 33.3496L200.645 25.5035Z" fill="#FFC48E"/>
<path d="M200.589 12.5567V14.8921C199.682 14.8921 198.947 14.1614 198.947 13.2601V11.0049L200.589 12.5567Z" fill="#263238"/>
<path d="M194.437 12.9126C194.414 13.3456 194.737 13.7123 195.156 13.7321C195.575 13.7519 195.933 13.4172 195.955 12.9842C195.976 12.5513 195.655 12.1846 195.235 12.1648C194.816 12.145 194.458 12.4796 194.437 12.9126Z" fill="#263238"/>
<path d="M187.829 10.7314L189.392 9.63563C189.102 9.19142 188.516 9.07649 188.084 9.37958C187.653 9.68213 187.538 10.2872 187.829 10.7314Z" fill="#263238"/>
<path d="M195.128 17.0437L192.967 17.8739C193.182 18.4833 193.84 18.7922 194.436 18.5629C195.033 18.3341 195.342 17.6537 195.128 17.0437Z" fill="#D4A377"/>
<path d="M188.634 12.416C188.611 12.849 188.934 13.2157 189.353 13.2355C189.772 13.2553 190.13 12.9206 190.152 12.4877C190.173 12.0547 189.852 11.688 189.432 11.6682C189.013 11.6479 188.655 11.9831 188.634 12.416Z" fill="#263238"/>
<path d="M192.537 12.026L192.427 16.1597L190.239 15.4861L192.537 12.026Z" fill="#D5A377"/>
<path d="M193.242 21.692C195.009 21.4616 198.643 20.4235 199.209 18.9958C199.209 18.9958 199.021 19.8933 197.935 20.818C196.849 21.7433 193.242 22.7852 193.242 22.7852V21.692Z" fill="#D4A377"/>
<path d="M198.042 0.334354C194.392 -0.510227 192.936 0.561002 189.244 0.164903C187.728 0.00186682 186.344 -0.0697622 185.33 0.447678C184.176 1.03675 183.501 2.32661 183.657 3.99011C183.92 6.79915 186.908 7.51758 186.908 7.51758C186.908 7.51758 189.442 1.73807 192.809 1.78351C196.176 1.82894 198.042 0.334354 198.042 0.334354Z" fill="#263238"/>
<path d="M152.65 59.0341L183.192 76.9355V68.1765L152.65 50.2746L152.65 59.0341Z" fill="#E0E0E0"/>
<path d="M204.364 64.5491L183.192 76.9355V68.1765L204.364 55.7895L204.364 64.5491Z" fill="#F0F0F0"/>
<path d="M152.65 50.2749L173.823 37.8889L204.364 55.7898L183.192 68.1763L152.65 50.2749Z" fill="#FAFAFA"/>
<path d="M194.626 53.5123C194.829 53.43 195.031 53.3712 195.23 53.3348C195.428 53.299 195.615 53.2809 195.79 53.2809C195.965 53.2809 196.125 53.2958 196.267 53.3258C196.41 53.3557 196.526 53.3931 196.616 53.438C196.663 53.461 196.683 53.4888 196.681 53.5214C196.677 53.5545 196.655 53.5818 196.616 53.6043L196.248 53.8202C196.188 53.8555 196.132 53.8747 196.079 53.879C196.027 53.8827 195.969 53.8811 195.906 53.8726C195.766 53.8523 195.609 53.8539 195.437 53.879C195.265 53.9036 195.073 53.9774 194.862 54.1008C194.771 54.1543 194.695 54.211 194.631 54.2698C194.568 54.3296 194.525 54.3884 194.5 54.4462C194.475 54.5034 194.472 54.5579 194.489 54.6092C194.506 54.6605 194.549 54.706 194.616 54.745C194.696 54.792 194.782 54.8193 194.871 54.8262C194.961 54.8337 195.067 54.823 195.19 54.7942C195.313 54.7653 195.457 54.7204 195.625 54.66C195.791 54.5996 195.992 54.5253 196.227 54.4365C196.483 54.3398 196.716 54.2671 196.923 54.2179C197.13 54.1687 197.322 54.142 197.502 54.1377C197.681 54.1335 197.847 54.1527 198 54.1944C198.153 54.2366 198.301 54.3002 198.445 54.3842C198.581 54.4643 198.684 54.5547 198.751 54.6557C198.817 54.7562 198.848 54.8631 198.843 54.9775C198.837 55.0914 198.794 55.209 198.713 55.3303C198.632 55.4511 198.513 55.573 198.355 55.6938L198.713 55.9039C198.752 55.9263 198.771 55.9536 198.771 55.9862C198.771 56.0193 198.752 56.0471 198.713 56.0701L198.287 56.3192C198.248 56.3422 198.201 56.3534 198.144 56.3529C198.088 56.3529 198.041 56.3422 198.002 56.3192L197.644 56.1097C197.462 56.1877 197.272 56.2508 197.075 56.2978C196.879 56.3449 196.687 56.3743 196.498 56.3855C196.311 56.3973 196.13 56.3887 195.956 56.3609C195.782 56.3331 195.625 56.2829 195.484 56.2086C195.439 56.1856 195.417 56.1578 195.422 56.1252C195.425 56.0926 195.446 56.0648 195.484 56.0418L195.853 55.8264C195.913 55.7916 195.969 55.7708 196.022 55.7649C196.075 55.7585 196.132 55.7617 196.196 55.774C196.266 55.7863 196.341 55.7954 196.422 55.8018C196.504 55.8076 196.591 55.8039 196.686 55.7895C196.78 55.775 196.884 55.7483 196.997 55.7093C197.109 55.6703 197.232 55.612 197.365 55.534C197.47 55.4725 197.564 55.4078 197.647 55.341C197.729 55.2742 197.789 55.2084 197.825 55.1437C197.863 55.0791 197.876 55.0176 197.868 54.9588C197.859 54.9005 197.814 54.8476 197.734 54.8006C197.656 54.7551 197.569 54.7321 197.47 54.7327C197.372 54.7327 197.255 54.7514 197.12 54.7893C196.985 54.8273 196.827 54.8807 196.648 54.9481C196.47 55.016 196.259 55.0924 196.017 55.1764C195.799 55.2544 195.596 55.3148 195.406 55.3581C195.216 55.4009 195.036 55.4233 194.866 55.4244C194.696 55.4254 194.532 55.4046 194.376 55.3624C194.22 55.3207 194.062 55.2533 193.904 55.1608C193.767 55.0807 193.668 54.9914 193.604 54.893C193.541 54.7936 193.51 54.6904 193.51 54.5814C193.509 54.4724 193.544 54.3622 193.612 54.25C193.681 54.1383 193.778 54.0292 193.904 53.9223L193.546 53.7128C193.508 53.6903 193.488 53.662 193.488 53.6294C193.488 53.5968 193.508 53.5684 193.546 53.546L193.973 53.2964C194.012 53.2739 194.06 53.2627 194.115 53.2627C194.171 53.2627 194.219 53.2739 194.257 53.2964L194.626 53.5123Z" fill="#B4FFE8"/>
<g opacity="0.100006">
<g opacity="0.100006">
<path opacity="0.100006" d="M168.566 62.4489L183.192 71.0054L191.967 65.8716L183.192 71.5356L168.566 62.4489Z" fill="black"/>
</g>
</g>
<g opacity="0.100006">
<g opacity="0.100006">
<path opacity="0.100006" d="M155.588 54.0916C155.588 54.0916 155.104 56.8605 155.348 58.2616C155.348 58.2616 159.178 58.1664 165.642 59.9727L155.588 54.0916Z" fill="black"/>
</g>
</g>
<path d="M155.588 54.0916L165.642 59.9727L154.519 56.7194L155.588 54.0916Z" fill="#FAFAFA"/>
<g opacity="0.100006">
<g opacity="0.100006">
<path opacity="0.100006" d="M168.566 63.7178L179.588 73.9858C179.588 73.9858 179.894 72.5741 182.009 71.582L168.566 63.7178Z" fill="black"/>
</g>
</g>
<path d="M168.566 63.7176L178.917 72.5488L182.009 71.5818L168.566 63.7176Z" fill="#FAFAFA"/>
<g opacity="0.100006">
<g opacity="0.100006">
<path opacity="0.100006" d="M200.837 60.1891C200.779 60.0993 200.743 60.0502 200.743 60.0502L193.778 64.125L201.617 63.4729C201.887 61.998 201.112 60.6211 200.837 60.1891Z" fill="black"/>
</g>
</g>
<path d="M193.778 64.125L200.743 60.0502L203.062 61.2898L193.778 64.125Z" fill="#FAFAFA"/>
<g opacity="0.300003">
<g opacity="0.300003">
<path opacity="0.300003" d="M158.032 51.5947C157.938 51.5947 157.848 51.5455 157.797 51.4579C157.723 51.3275 157.767 51.1596 157.897 51.0842L170.483 43.7027C170.612 43.6284 170.776 43.6722 170.852 43.8027C170.926 43.9336 170.882 44.1009 170.753 44.1768L158.167 51.5578C158.124 51.583 158.077 51.5947 158.032 51.5947Z" fill="#455A64"/>
</g>
<g opacity="0.300003">
<path opacity="0.300003" d="M160.956 53.3057C160.864 53.3057 160.773 53.2565 160.723 53.1688C160.648 53.0384 160.692 52.8711 160.821 52.7952L173.408 45.4142C173.536 45.3393 173.702 45.3837 173.777 45.5141C173.851 45.6451 173.807 45.8124 173.677 45.8883L161.091 53.2693C161.049 53.2939 161.002 53.3057 160.956 53.3057Z" fill="#455A64"/>
</g>
<g opacity="0.300003">
<path opacity="0.300003" d="M163.882 55.0171C163.789 55.0171 163.698 54.9679 163.647 54.8802C163.573 54.7498 163.617 54.582 163.747 54.5066L176.333 47.1256C176.462 47.0502 176.627 47.0951 176.702 47.2256C176.776 47.3565 176.732 47.5238 176.603 47.5997L164.017 54.9802C163.974 55.0053 163.928 55.0171 163.882 55.0171Z" fill="#455A64"/>
</g>
<g opacity="0.300003">
<path opacity="0.300003" d="M166.807 56.729C166.714 56.729 166.623 56.6798 166.573 56.5922C166.498 56.4617 166.542 56.2939 166.672 56.2185L179.258 48.837C179.384 48.7621 179.55 48.8054 179.627 48.9375C179.701 49.0679 179.657 49.2352 179.528 49.3111L166.942 56.6921C166.9 56.7172 166.853 56.729 166.807 56.729Z" fill="#455A64"/>
</g>
<g opacity="0.300003">
<path opacity="0.300003" d="M169.732 58.4404C169.639 58.4404 169.548 58.3913 169.498 58.3036C169.423 58.1726 169.468 58.0053 169.597 57.9294L182.183 50.5489C182.311 50.4736 182.477 50.5185 182.552 50.6489C182.627 50.7793 182.583 50.9472 182.453 51.0225L169.867 58.4035C169.825 58.4287 169.778 58.4404 169.732 58.4404Z" fill="#455A64"/>
</g>
<g opacity="0.300003">
<path opacity="0.300003" d="M172.657 60.1519C172.565 60.1519 172.474 60.1027 172.423 60.015C172.349 59.8846 172.393 59.7167 172.522 59.6414L185.108 52.2604C185.237 52.185 185.402 52.2299 185.477 52.3603C185.551 52.4913 185.507 52.6586 185.378 52.7345L172.793 60.1155C172.75 60.1401 172.703 60.1519 172.657 60.1519Z" fill="#455A64"/>
</g>
<g opacity="0.300003">
<path opacity="0.300003" d="M175.582 61.8633C175.489 61.8633 175.398 61.8141 175.348 61.7264C175.273 61.596 175.317 61.4282 175.447 61.3528L188.033 53.9712C188.162 53.8964 188.327 53.9408 188.402 54.0712C188.477 54.2022 188.432 54.3695 188.303 54.4454L175.717 61.8264C175.675 61.8515 175.628 61.8633 175.582 61.8633Z" fill="#455A64"/>
</g>
</g>
<g opacity="0.300003">
<g opacity="0.300003">
<path opacity="0.300003" d="M172.725 43.0195C172.632 43.0195 172.541 42.9704 172.491 42.8827C172.416 42.7523 172.46 42.5849 172.59 42.509L175.447 40.8161C175.576 40.7418 175.741 40.7851 175.816 40.9161C175.891 41.0471 175.847 41.2144 175.717 41.2897L172.86 42.9832C172.818 43.0078 172.77 43.0195 172.725 43.0195Z" fill="#455A64"/>
</g>
<g opacity="0.300003">
<path opacity="0.300003" d="M175.65 44.731C175.557 44.731 175.466 44.6818 175.416 44.5941C175.341 44.4637 175.385 44.2958 175.515 44.2205L178.372 42.5276C178.5 42.4527 178.666 42.4971 178.741 42.6275C178.816 42.7585 178.772 42.9263 178.642 43.0017L175.785 44.6941C175.743 44.7192 175.696 44.731 175.65 44.731Z" fill="#455A64"/>
</g>
<g opacity="0.300003">
<path opacity="0.300003" d="M178.575 46.4419C178.482 46.4419 178.391 46.3927 178.341 46.3051C178.266 46.1746 178.311 46.0073 178.44 45.9314L181.297 44.2385C181.426 44.1631 181.591 44.208 181.666 44.339C181.741 44.47 181.697 44.6373 181.568 44.7126L178.71 46.4055C178.668 46.4301 178.621 46.4419 178.575 46.4419Z" fill="#455A64"/>
</g>
<g opacity="0.300003">
<path opacity="0.300003" d="M181.501 48.1538C181.407 48.1538 181.317 48.1046 181.267 48.017C181.192 47.8865 181.236 47.7192 181.365 47.6433L184.222 45.9504C184.348 45.8756 184.515 45.9189 184.591 46.0504C184.666 46.1813 184.622 46.3486 184.492 46.4246L181.636 48.1175C181.594 48.142 181.546 48.1538 181.501 48.1538Z" fill="#455A64"/>
</g>
<g opacity="0.300003">
<path opacity="0.300003" d="M184.425 49.8652C184.332 49.8652 184.242 49.8161 184.191 49.7284C184.117 49.598 184.161 49.4301 184.29 49.3547L187.148 47.6618C187.275 47.587 187.441 47.6319 187.516 47.7623C187.591 47.8933 187.547 48.0606 187.418 48.136L184.56 49.8284C184.518 49.8535 184.471 49.8652 184.425 49.8652Z" fill="#455A64"/>
</g>
<g opacity="0.300003">
<path opacity="0.300003" d="M187.351 51.5767C187.258 51.5767 187.167 51.5275 187.117 51.4398C187.042 51.3089 187.087 51.1415 187.216 51.0662L190.072 49.3733C190.201 49.2979 190.367 49.3433 190.442 49.4732C190.516 49.6042 190.472 49.772 190.342 49.8474L187.486 51.5398C187.444 51.5649 187.397 51.5767 187.351 51.5767Z" fill="#455A64"/>
</g>
<g opacity="0.300003">
<path opacity="0.300003" d="M190.275 53.2881C190.182 53.2881 190.091 53.2389 190.041 53.1512C189.966 53.0208 190.011 52.8535 190.14 52.7776L192.998 51.0847C193.126 51.0099 193.292 51.0542 193.367 51.1846C193.441 51.3156 193.397 51.4829 193.268 51.5588L190.411 53.2517C190.368 53.2763 190.321 53.2881 190.275 53.2881Z" fill="#455A64"/>
</g>
</g>
<path d="M185.071 60.3604L187.394 61.7197L187.728 61.5241L185.404 60.1653L185.071 60.3604Z" fill="#455A64"/>
<path d="M187.649 58.8516L189.973 60.2109L190.306 60.0158L187.983 58.6565L187.649 58.8516Z" fill="#455A64"/>
<path d="M189.814 57.585L192.137 58.9443L192.353 58.8182L190.03 57.4588L189.814 57.585Z" fill="#455A64"/>
<path d="M186.395 59.5855L188.718 60.9448L188.885 60.847L186.561 59.4877L186.395 59.5855Z" fill="#455A64"/>
<path d="M188.214 58.521L190.538 59.8804L190.705 59.7825L188.381 58.4232L188.214 58.521Z" fill="#455A64"/>
<path d="M189.388 57.8345L191.711 59.1938L191.878 59.096L189.554 57.7367L189.388 57.8345Z" fill="#455A64"/>
<path d="M185.664 60.0137L187.987 61.3726L188.58 61.0262L186.257 59.6668L185.664 60.0137Z" fill="#455A64"/>
<path d="M186.849 59.3198L189.172 60.6792L189.765 60.3323L187.442 58.9729L186.849 59.3198Z" fill="#455A64"/>
<path d="M188.628 58.2788L190.951 59.6382L191.357 59.4014L189.033 58.042L188.628 58.2788Z" fill="#455A64"/>
<path d="M179.568 63.5796L181.892 64.939L182.225 64.7439L179.902 63.3845L179.568 63.5796Z" fill="#455A64"/>
<path d="M182.147 62.0708L184.47 63.4302L184.804 63.2345L182.48 61.8757L182.147 62.0708Z" fill="#455A64"/>
<path d="M184.312 60.8048L186.635 62.1636L186.969 61.969L184.645 60.6096L184.312 60.8048Z" fill="#455A64"/>
<path d="M180.892 62.8047L183.215 64.1641L183.382 64.0662L181.059 62.7069L180.892 62.8047Z" fill="#455A64"/>
<path d="M182.699 61.7471L185.022 63.1064L185.189 63.0086L182.865 61.6493L182.699 61.7471Z" fill="#455A64"/>
<path d="M183.885 61.0538L186.208 62.4126L186.375 62.3153L184.051 60.956L183.885 61.0538Z" fill="#455A64"/>
<path d="M180.16 63.2329L182.483 64.5923L182.922 64.3362L180.599 62.9769L180.16 63.2329Z" fill="#455A64"/>
<path d="M181.346 62.5391L183.669 63.8984L184.152 63.6162L181.828 62.2568L181.346 62.5391Z" fill="#455A64"/>
<path d="M183.146 61.4859L185.47 62.8452L185.927 62.5806L183.603 61.2213L183.146 61.4859Z" fill="#455A64"/>
<path d="M190.363 57.2632L192.686 58.6226L193.02 58.4274L190.697 57.0681L190.363 57.2632Z" fill="#455A64"/>
<path d="M190.972 56.9077L193.296 58.2671L193.463 58.1693L191.139 56.8099L190.972 56.9077Z" fill="#455A64"/>
<path d="M192.102 56.2466L194.425 57.606L194.592 57.5081L192.269 56.1488L192.102 56.2466Z" fill="#455A64"/>
<path d="M191.458 56.6231L193.782 57.9824L194.259 57.7034L191.935 56.344L191.458 56.6231Z" fill="#455A64"/>
<path d="M206.411 25.5037C208.139 25.841 210.429 26.2585 211.691 28.4266C213.307 31.2052 220.691 46.3831 220.571 47.5666C220.355 49.686 212.009 59.1042 209.346 62.6659C207.584 65.0237 206.433 66.5547 201.026 68.393C198.316 69.314 197.448 68.5384 197.448 68.5384L203.404 65.0537C203.715 64.8105 204.488 63.9883 203.652 64.0364C202.974 64.076 202.301 64.2075 201.62 64.1957C201.04 64.1856 200.464 64.1546 199.97 63.8055C199.862 63.7285 199.754 63.6291 199.732 63.4971C199.713 63.3779 199.768 63.2581 199.841 63.1625C199.938 63.0336 200.212 62.9444 200.36 62.8754C200.562 62.7824 200.772 62.7076 200.983 62.6386C201.409 62.4991 201.847 62.3916 202.267 62.2302C202.93 61.9752 203.538 61.786 204.024 61.5781C204.424 61.407 204.915 61.2017 205.558 60.1701C206.51 58.6418 207.146 57.3915 207.468 56.8056C208.428 55.062 211.914 48.8741 212.912 47.0176L206.383 36.1444C204.263 33.407 204.313 25.9779 206.411 25.5037Z" fill="#FFA8A7"/>
<path d="M205.668 25.4548C206.726 25.1747 209.349 24.5685 210.683 26.34C212.017 28.112 217.906 40.2083 218.55 41.643C219.195 43.0783 221.541 46.6683 220.805 48.1607C220.069 49.6526 218.069 51.748 218.069 51.748C218.069 51.748 215.659 49.1758 211.929 48.808L212.766 47.0355L205.673 35.5059C205.673 35.5059 203.229 29.9781 205.668 25.4548Z" fill="#FFA75C"/>
</svg>
