<svg width="341" height="296" viewBox="0 0 341 296" fill="none" xmlns="http://www.w3.org/2000/svg">
<path d="M190.033 36.6421C190.033 36.6421 221.539 36.993 226.314 42.4913C231.089 47.9895 226.662 67.6866 226.662 67.6866C231.876 77.1705 235.583 87.4186 237.648 98.0584C240.725 114.962 233.527 131.881 233.527 131.881C233.527 131.881 230.45 147.396 227.373 154.298C224.297 161.2 202.035 160.864 188.669 158.436C175.303 156.009 180.803 132.568 181.833 115.313C182.864 98.0584 178.742 50.7971 178.742 46.3078C178.742 41.8186 181.833 40.1223 190.033 36.6421Z" fill="white"/>
<mask id="mask0_101_3908" style="mask-type:luminance" maskUnits="userSpaceOnUse" x="178" y="36" width="61" height="125">
<path d="M190.034 36.6422C190.034 36.6422 221.54 36.9932 226.315 42.4914C231.09 47.9896 226.663 67.6867 226.663 67.6867C231.877 77.1706 235.584 87.4187 237.649 98.0585C240.726 114.963 233.528 131.881 233.528 131.881C233.528 131.881 230.451 147.396 227.374 154.298C224.298 161.2 202.036 160.864 188.67 158.437C175.304 156.009 180.804 132.569 181.834 115.314C182.865 98.0585 178.743 50.7972 178.743 46.308C178.743 41.8187 181.834 40.1225 190.034 36.6422Z" fill="white"/>
</mask>
<g mask="url(#mask0_101_3908)">
<path opacity="0.1" d="M190.034 36.6422C190.034 36.6422 221.54 36.9932 226.315 42.4914C231.09 47.9896 226.663 67.6867 226.663 67.6867C231.877 77.1706 235.584 87.4187 237.649 98.0585C240.726 114.963 233.528 131.881 233.528 131.881C233.528 131.881 230.451 147.396 227.374 154.298C224.298 161.2 202.036 160.864 188.67 158.437C175.304 156.009 180.804 132.569 181.834 115.314C182.865 98.0585 178.743 50.7972 178.743 46.308C178.743 41.8187 181.834 40.1225 190.034 36.6422Z" fill="black"/>
</g>
<path d="M190.033 36.6421C190.033 36.6421 221.539 36.993 226.314 42.4913C231.089 47.9895 226.662 67.6866 226.662 67.6866C231.876 77.1705 235.583 87.4186 237.648 98.0584C240.725 114.962 233.527 131.881 233.527 131.881C233.527 131.881 230.45 147.396 227.373 154.298C224.297 161.2 202.035 160.864 188.669 158.436C175.303 156.009 180.803 132.568 181.833 115.313C182.864 98.0584 178.742 50.7971 178.742 46.3078C178.742 41.8186 181.833 40.1223 190.033 36.6421Z" stroke="#263238" stroke-linecap="round" stroke-linejoin="round"/>
<path d="M226.693 67.7305C226.693 67.7305 208.538 73.5797 195.186 75.3198L194.838 69.105C194.838 69.105 222.571 66.6922 227.375 62.554L226.693 67.7305Z" fill="#263238" stroke="#263238" stroke-linecap="round" stroke-linejoin="round"/>
<path d="M233.571 131.91C233.571 131.91 212.354 136.736 204.807 136.049L204.125 141.898C204.125 141.898 225.023 141.547 232.555 138.096L233.571 131.91Z" fill="#263238" stroke="#263238" stroke-linecap="round" stroke-linejoin="round"/>
<path d="M146.497 152.953C146.497 152.953 99.2441 148.815 87.9389 152.953C76.6337 157.091 74.8777 171.246 74.8777 180.897C74.8777 190.548 67.6214 233.686 66.9974 235.412C66.3734 237.137 58.7834 252.316 61.1924 255.767C63.6015 259.218 85.167 255.767 88.9257 251.979C92.6845 248.192 102.277 205.742 105.702 194.701C107.617 188.371 110.139 182.245 113.234 176.408C113.234 176.408 158.092 195.052 181.733 188.487C205.374 181.921 196.797 165.09 183.779 158.129C170.762 151.169 146.497 152.953 146.497 152.953Z" fill="#263238" stroke="#263238" stroke-linecap="round" stroke-linejoin="round"/>
<path d="M64.0369 232.663C64.0369 232.663 51.7013 236.45 45.5481 236.45C39.3948 236.45 30.1358 234.373 28.7571 243.001C27.3784 251.629 35.2732 259.92 52.7317 260.943C70.1902 261.967 74.9939 261.645 78.7526 257.843C82.5113 254.041 81.8437 249.216 78.0705 243.001C74.2973 236.786 67.7957 232.312 64.0369 232.663Z" fill="#FF7122" stroke="#263238" stroke-linecap="round" stroke-linejoin="round"/>
<path d="M74.3114 244.727C75.5625 244.174 76.738 243.461 77.809 242.606C74.0067 236.611 67.7228 232.37 64.0366 232.663C64.0366 232.663 51.701 236.45 45.5477 236.45H44.5899C42.1373 237.371 39.1332 239.462 41.0924 244.054C44.1691 251.292 61.9759 250.254 74.3114 244.727Z" fill="white" stroke="#263238" stroke-linecap="round" stroke-linejoin="round"/>
<path d="M332.155 286.139C332.155 286.139 278.735 197.114 275.31 196.427C271.885 195.74 257.503 195.052 257.503 195.052C257.503 195.052 218.465 173.659 211.615 173.659C204.765 173.659 171.894 193.663 168.469 195.052C165.044 196.442 146.555 198.504 146.555 201.253C146.555 204.002 133.494 226.112 133.494 226.112L106.777 235.777L104.731 246.13L96.502 292.353H340.311L332.155 286.139Z" fill="white"/>
<mask id="mask1_101_3908" style="mask-type:luminance" maskUnits="userSpaceOnUse" x="96" y="173" width="245" height="120">
<path d="M332.154 286.139C332.154 286.139 278.734 197.114 275.309 196.427C271.884 195.74 257.502 195.052 257.502 195.052C257.502 195.052 218.464 173.659 211.614 173.659C204.764 173.659 171.893 193.663 168.468 195.052C165.043 196.442 146.554 198.503 146.554 201.253C146.554 204.002 133.493 226.111 133.493 226.111L106.776 235.777L104.73 246.13L96.501 292.353H340.31L332.154 286.139Z" fill="white"/>
</mask>
<g mask="url(#mask1_101_3908)">
<path opacity="0.21" d="M346.348 293.903L333.098 282.688L277.951 194L253.033 190.256C253.033 190.256 213.849 169.959 209.495 170.486C205.142 171.012 161.241 196.676 159.659 196.676C158.078 196.676 147.454 196.135 144.813 199.878C142.172 203.621 131.026 222.851 131.026 222.851L103.453 231.931L100.797 251.161L122.566 252.228L166.582 296.097H351.122L346.348 293.903Z" fill="black"/>
<path d="M244.471 217.864C251.275 217.864 256.792 214.42 256.792 210.173C256.792 205.925 251.275 202.481 244.471 202.481C237.666 202.481 232.149 205.925 232.149 210.173C232.149 214.42 237.666 217.864 244.471 217.864Z" fill="white"/>
<path d="M281.463 201.472C281.463 205.727 275.948 209.178 269.156 209.178C262.364 209.178 256.835 205.727 256.835 201.472C256.835 197.217 262.35 193.78 269.156 193.78C275.962 193.78 281.463 197.231 281.463 201.472Z" fill="white"/>
<path d="M233.571 213.141C233.571 214.925 231.365 216.373 228.651 216.373C225.937 216.373 223.717 214.91 223.717 213.141C223.717 211.372 225.923 209.924 228.651 209.924C231.379 209.924 233.571 211.357 233.571 213.141Z" fill="white"/>
<path d="M260.722 216.373C265.347 216.373 269.096 213.819 269.096 210.67C269.096 207.52 265.347 204.967 260.722 204.967C256.098 204.967 252.349 207.52 252.349 210.67C252.349 213.819 256.098 216.373 260.722 216.373Z" fill="white"/>
<path d="M255.804 220.35C255.804 222.807 252.161 224.81 247.677 224.81C243.192 224.81 239.55 222.807 239.55 220.35C239.55 217.893 243.178 215.875 247.677 215.875C252.176 215.875 255.804 217.879 255.804 220.35Z" fill="white"/>
<path d="M222.295 213.141C222.295 214.603 220.307 215.876 217.869 215.876C215.43 215.876 213.428 214.647 213.428 213.141C213.428 211.635 215.416 210.421 217.869 210.421C220.321 210.421 222.295 211.635 222.295 213.141Z" fill="white"/>
<path d="M236.096 199.995C236.096 200.814 234.543 201.457 232.642 201.457C230.74 201.457 229.202 200.799 229.202 199.995C229.202 199.191 230.74 198.532 232.642 198.532C234.543 198.532 236.096 199.161 236.096 199.995Z" fill="white"/>
<path d="M260.725 200.975C260.725 203.168 258.301 204.952 255.312 204.952C252.322 204.952 249.898 203.168 249.898 200.975C249.898 198.781 252.322 197.012 255.312 197.012C258.301 197.012 260.725 198.781 260.725 200.975Z" fill="white"/>
<path d="M249.897 199.249C249.897 200.2 247.909 200.975 245.456 200.975C243.004 200.975 241.016 200.2 241.016 199.249C241.016 198.299 243.004 197.509 245.456 197.509C247.909 197.509 249.897 198.284 249.897 199.249Z" fill="white"/>
<path d="M265.658 226.55C265.658 229.153 262.016 231.259 257.531 231.259C253.047 231.259 249.404 229.153 249.404 226.55C249.404 223.947 253.032 221.827 257.531 221.827C262.03 221.827 265.658 223.947 265.658 226.55Z" fill="white"/>
<path d="M270.578 226.799C276.838 226.799 281.913 223.466 281.913 219.356C281.913 215.245 276.838 211.913 270.578 211.913C264.319 211.913 259.244 215.245 259.244 219.356C259.244 223.466 264.319 226.799 270.578 226.799Z" fill="white"/>
<path d="M288.326 211.401C288.326 215.524 283.246 218.858 276.992 218.858C270.737 218.858 265.657 215.524 265.657 211.401C265.657 207.277 270.737 203.958 276.992 203.958C283.246 203.958 288.326 207.292 288.326 211.401Z" fill="white"/>
<path d="M203.095 220.891C203.095 222.822 200.889 224.372 198.175 224.372C195.462 224.372 193.241 222.822 193.241 220.891C193.241 218.961 195.447 217.426 198.175 217.426C200.904 217.426 203.095 218.917 203.095 220.891Z" fill="white"/>
<path d="M209.001 233.745C209.001 237.591 202.819 240.705 195.2 240.705C187.581 240.705 181.398 237.591 181.398 233.745C181.398 229.899 187.581 226.799 195.2 226.799C202.819 226.799 209.001 229.914 209.001 233.745Z" fill="white"/>
<path d="M214.908 226.053C214.908 228.977 211.163 231.259 206.534 231.259C201.904 231.259 198.16 228.934 198.16 226.053C198.16 223.172 201.904 220.833 206.534 220.833C211.163 220.833 214.908 223.172 214.908 226.053Z" fill="white"/>
<path d="M178.699 213.39C178.699 215.861 175.057 217.864 170.558 217.864C166.059 217.864 162.431 215.861 162.431 213.39C162.431 210.918 166.073 208.93 170.558 208.93C175.042 208.93 178.699 210.918 178.699 213.39Z" fill="white"/>
<path d="M169.586 222.354C169.586 224.006 166.494 225.278 162.678 225.278C158.861 225.278 155.784 223.947 155.784 222.354C155.784 220.76 158.875 219.429 162.678 219.429C166.48 219.429 169.586 220.687 169.586 222.354Z" fill="white"/>
<path d="M172.778 226.799C175.367 226.799 177.466 225.574 177.466 224.064C177.466 222.554 175.367 221.33 172.778 221.33C170.189 221.33 168.091 222.554 168.091 224.064C168.091 225.574 170.189 226.799 172.778 226.799Z" fill="white"/>
<path d="M150.849 234.739C150.849 237.21 146.496 239.214 141.242 239.214C135.989 239.214 131.635 237.21 131.635 234.739C131.635 232.268 135.989 230.279 141.242 230.279C146.496 230.279 150.849 232.268 150.849 234.739Z" fill="white"/>
<path d="M152.33 257.083C158.045 257.083 162.677 253.862 162.677 249.888C162.677 245.915 158.045 242.694 152.33 242.694C146.615 242.694 141.982 245.915 141.982 249.888C141.982 253.862 146.615 257.083 152.33 257.083Z" fill="white"/>
<path d="M158.744 235.982C158.744 237.444 156.538 238.716 153.809 238.716C151.081 238.716 148.89 237.488 148.89 235.982C148.89 234.476 151.096 233.247 153.809 233.247C156.523 233.247 158.744 234.476 158.744 235.982Z" fill="white"/>
<path d="M137.309 245.662C140.435 245.662 142.969 244.327 142.969 242.679C142.969 241.032 140.435 239.696 137.309 239.696C134.183 239.696 131.649 241.032 131.649 242.679C131.649 244.327 134.183 245.662 137.309 245.662Z" fill="white"/>
<path d="M174.506 248.148C174.506 250.064 171.603 251.614 168.106 251.614C164.608 251.614 161.691 250.064 161.691 248.148C161.691 246.233 164.594 244.668 168.106 244.668C171.618 244.668 174.506 246.233 174.506 248.148Z" fill="white"/>
<path opacity="0.1" d="M275.309 196.427L277.341 239.111L212.789 222.076L214.327 271.633L179.744 246.862L176.682 263.897L148.238 270.097L120.533 241.977L108.285 270.872L49.8722 279.383L0.689453 295.103H173.954L172.604 292.163L340.368 292.353L332.154 286.139L275.309 196.427Z" fill="black"/>
</g>
<path d="M332.155 286.139C332.155 286.139 278.735 197.114 275.31 196.427C271.885 195.74 257.503 195.052 257.503 195.052C257.503 195.052 218.465 173.659 211.615 173.659C204.765 173.659 171.894 193.663 168.469 195.052C165.044 196.442 146.555 198.504 146.555 201.253C146.555 204.002 133.494 226.112 133.494 226.112L106.777 235.777L104.731 246.13L96.502 292.353H340.311L332.155 286.139Z" stroke="#263238" stroke-linecap="round" stroke-linejoin="round"/>
<path opacity="0.1" d="M146.497 201.253C146.497 203.388 138.791 216.958 135.235 223.085L163.012 209.924L219.059 207.424L238.796 199.088H257.271L260.42 195.199L257.517 195.052C257.517 195.052 218.479 173.659 211.629 173.659C204.779 173.659 171.908 193.663 168.483 195.052C165.058 196.442 146.497 198.504 146.497 201.253Z" fill="black"/>
<path d="M133.551 226.097H156.829L191.078 257.843L190.382 279.924L167.786 291.651" stroke="#263238" stroke-linecap="round" stroke-linejoin="round"/>
<path d="M168.802 236.289L198.61 213.682L243.12 239.901L262.988 293.04" stroke="#263238" stroke-linecap="round" stroke-linejoin="round"/>
<path d="M243.12 239.901L234.906 267.509L202.035 276.473L191.078 268.883" stroke="#263238" stroke-linecap="round" stroke-linejoin="round"/>
<path d="M202.035 276.473L203.399 292.339" stroke="#263238" stroke-linecap="round" stroke-linejoin="round"/>
<path d="M234.906 267.509L245.181 291.652" stroke="#263238" stroke-linecap="round" stroke-linejoin="round"/>
<path d="M208.537 151.915C208.537 151.915 209.219 169.462 205.794 177.11C202.369 184.758 197.232 188.487 177.379 189.876C157.526 191.265 130.809 181.585 130.809 181.585C130.809 181.585 116.427 206.093 110.607 216.782C104.788 227.472 94.1646 239.55 91.0879 243.703C88.0113 247.856 84.5718 254.041 80.4648 256.118C76.3577 258.194 66.765 245.765 65.0525 241.276C63.3401 236.786 61.9759 233.686 62.3242 231.624C62.6725 229.563 70.1899 226.097 70.1899 226.097C70.1899 226.097 81.7999 204.016 87.3147 195.052C92.8294 186.089 96.9074 167.795 101.697 161.23C106.486 154.664 117.457 150.877 131.142 151.579C144.828 152.28 167.104 155.088 172.924 155.088C178.743 155.088 208.537 151.915 208.537 151.915Z" fill="#263238" stroke="#263238" stroke-linecap="round" stroke-linejoin="round"/>
<path d="M75.3857 217.002C80.9876 206.956 90.4352 189.671 93.149 182.565C97.0819 172.255 101.421 163.555 101.421 163.555" stroke="white" stroke-width="0.75" stroke-linecap="round" stroke-linejoin="round"/>
<path d="M71.1035 224.576C71.1035 224.576 71.7711 223.421 72.845 221.505" stroke="white" stroke-width="0.75" stroke-linecap="round" stroke-linejoin="round"/>
<path d="M155.204 68.5349C155.204 68.5349 148.586 77.0455 146.758 83.9475C144.929 90.8495 138.312 115.226 136.947 117.068C135.583 118.911 131.229 125.126 127.122 128.109C123.015 131.092 109.417 136.561 104.396 140.933C99.3746 145.305 101.784 147.426 99.7374 150.877C97.6911 154.328 106.994 156.404 109.083 156.404C111.173 156.404 126.208 155.483 134.654 152.5C143.101 149.517 156.351 132.715 156.8 131.794C157.25 130.872 159.703 115.708 160.458 98.161C161.212 80.6135 163.912 68.5349 155.204 68.5349Z" fill="#FF7122"/>
<mask id="mask2_101_3908" style="mask-type:luminance" maskUnits="userSpaceOnUse" x="99" y="68" width="63" height="89">
<path d="M155.205 68.5349C155.205 68.5349 148.587 77.0455 146.759 83.9475C144.93 90.8495 138.313 115.226 136.948 117.068C135.584 118.911 131.23 125.126 127.123 128.109C123.016 131.092 109.418 136.561 104.397 140.933C99.3756 145.305 101.785 147.426 99.7384 150.877C97.6921 154.328 106.995 156.404 109.084 156.404C111.174 156.404 126.209 155.483 134.655 152.5C143.102 149.517 156.352 132.715 156.801 131.794C157.251 130.872 159.704 115.708 160.459 98.161C161.213 80.6135 163.913 68.5349 155.205 68.5349Z" fill="white"/>
</mask>
<g mask="url(#mask2_101_3908)">
<path opacity="0.2" d="M161.403 81.4907C161.257 80.277 161.17 79.5751 161.17 79.5751L152.681 86.2432C150.094 90.6553 148.895 95.7536 149.241 100.866C149.676 109.918 151.81 115.972 150.533 115.972C149.256 115.972 144.96 110.78 144.96 115.972C144.96 121.163 147.964 125.023 148.82 128.05C149.676 131.077 138.11 118.121 139.402 122.435C140.693 126.749 146.251 131.94 145.816 134.528C145.381 137.116 138.56 125.462 135.962 128.489C133.364 131.516 135.541 136.678 132.973 137.54C130.825 138.272 112.844 151.637 110.972 156.272C115.717 156.009 127.559 154.956 134.685 152.441C143.131 149.443 156.381 132.656 156.831 131.735C157.281 130.814 159.734 115.65 160.488 98.1023C160.735 91.8145 161.257 86.1262 161.403 81.4907Z" fill="black"/>
</g>
<path d="M155.204 68.5349C155.204 68.5349 148.586 77.0455 146.758 83.9475C144.929 90.8495 138.312 115.226 136.947 117.068C135.583 118.911 131.229 125.126 127.122 128.109C123.015 131.092 109.417 136.561 104.396 140.933C99.3746 145.305 101.784 147.426 99.7374 150.877C97.6911 154.328 106.994 156.404 109.083 156.404C111.173 156.404 126.208 155.483 134.654 152.5C143.101 149.517 156.351 132.715 156.8 131.794C157.25 130.872 159.703 115.708 160.458 98.161C161.212 80.6135 163.912 68.5349 155.204 68.5349Z" stroke="#263238" stroke-linecap="round" stroke-linejoin="round"/>
<path d="M152.532 131.033C152.532 131.033 140.342 117.156 139.95 120.329C139.558 123.502 148.208 131.033 148.208 134.601C148.208 138.169 135.625 124.292 134.435 128.255C134.124 129.361 134.234 130.544 134.744 131.572C135.255 132.6 136.128 133.399 137.193 133.811" stroke="#263238" stroke-linecap="round" stroke-linejoin="round"/>
<path d="M111.478 141.679C111.478 141.679 104.425 139.061 101.45 141.679C98.4747 144.296 87.3292 153.655 91.799 156.302C96.2688 158.948 104.251 159.007 107.023 156.682C108.606 155.335 110.357 154.205 112.233 153.318C112.233 153.318 111.115 157.428 114.83 155.19C118.545 152.953 121.883 145.451 119.648 143.58C117.414 141.708 111.478 141.679 111.478 141.679Z" fill="#263238" stroke="#263238" stroke-linecap="round" stroke-linejoin="round"/>
<path d="M152.505 67.3502C151.524 76.3671 151.073 85.4345 151.155 94.505C151.547 106.203 153.666 129.249 151.358 136.619C149.051 143.989 149.239 150.584 153.666 153.508C158.092 156.433 178.337 159.709 191.021 157.968C203.705 156.228 211.251 154.079 212.02 149.195C212.789 144.311 213.37 102.226 211.048 86.901C208.726 71.5762 204.125 57.2165 199.438 52.5518C194.75 47.8871 190.005 49.6272 178.25 54.3065C166.495 58.9859 155.784 62.6855 152.505 67.3502Z" fill="#FF7122" stroke="#263238" stroke-linecap="round" stroke-linejoin="round"/>
<path d="M176.972 89.4601C176.972 89.4601 166.015 96.3621 150.603 89.4601C150.603 89.4601 149.921 96.7715 150.952 96.7715C155.727 98.2168 160.696 98.9123 165.682 98.8334C175.608 98.8334 179.367 96.4206 179.367 96.4206L176.972 89.4601Z" fill="#263238" stroke="#263238" stroke-linecap="round" stroke-linejoin="round"/>
<path d="M176.001 64.2793C176.001 64.2793 171.56 75.3197 172.576 85.3217C173.592 95.3238 177.031 103.615 186.958 103.615C196.884 103.615 205.113 81.8707 205.461 69.7922C205.809 57.7137 201.688 52.5518 192.095 52.5518C182.502 52.5518 176.001 64.2793 176.001 64.2793Z" fill="#263238" stroke="#263238" stroke-linecap="round" stroke-linejoin="round"/>
<path d="M150.59 65.0107C150.59 65.0107 156.395 76.709 157.846 78.9902C159.297 81.2714 159.573 80.3501 161.111 79.5751C162.65 78.8001 190.775 54.3506 193.285 53.3708C195.796 52.3911 200.788 54.7308 201.18 52.2156C201.572 49.7005 190.775 33.9662 187.698 31.4511C184.622 28.9359 178.454 38.4262 176.915 39.2012C175.377 39.9762 174.797 39.2012 172.097 39.7861C169.398 40.371 155.597 57.8308 150.59 65.0107Z" fill="#FF7122"/>
<mask id="mask3_101_3908" style="mask-type:luminance" maskUnits="userSpaceOnUse" x="150" y="31" width="52" height="50">
<path d="M150.589 65.0106C150.589 65.0106 156.394 76.7089 157.845 78.9901C159.296 81.2712 159.572 80.35 161.11 79.575C162.649 78.8 190.774 54.3505 193.285 53.3707C195.795 52.391 200.787 54.7306 201.179 52.2155C201.571 49.7003 190.774 33.9661 187.697 31.4509C184.621 28.9358 178.453 38.4261 176.914 39.2011C175.376 39.9761 174.796 39.2011 172.096 39.786C169.397 40.3709 155.596 57.8307 150.589 65.0106Z" fill="white"/>
</mask>
<g mask="url(#mask3_101_3908)">
<path opacity="0.2" d="M187.755 31.4509C184.664 28.9211 178.51 38.426 176.972 39.2011C175.434 39.9761 174.853 39.2011 172.154 39.786C170.587 40.1223 165.217 46.2054 160.021 52.6395L162.924 69.0903C162.924 69.0903 176.261 62.8756 180.121 60.9015C176.47 64.5471 173.043 68.4149 169.861 72.4829C178.815 64.9374 191.63 54.0141 193.357 53.3707C195.853 52.4056 200.86 54.7306 201.251 52.2155C201.643 49.7003 190.831 33.966 187.755 31.4509Z" fill="black"/>
</g>
<path d="M150.59 65.0107C150.59 65.0107 156.395 76.709 157.846 78.9902C159.297 81.2714 159.573 80.3501 161.111 79.5751C162.65 78.8001 190.775 54.3506 193.285 53.3708C195.796 52.3911 200.788 54.7308 201.18 52.2156C201.572 49.7005 190.775 33.9662 187.698 31.4511C184.622 28.9359 178.454 38.4262 176.915 39.2012C175.377 39.9762 174.797 39.2012 172.097 39.7861C169.398 40.371 155.597 57.8308 150.59 65.0107Z" stroke="#263238" stroke-linecap="round" stroke-linejoin="round"/>
<path d="M171.762 54.1897C171.762 54.1897 190.294 41.1022 184.01 41.1022C177.726 41.1022 176.928 49.0278 176.928 49.0278" stroke="#263238" stroke-linecap="round" stroke-linejoin="round"/>
<path d="M156.554 63.8556L162.91 69.0906C166.125 64.2727 169.08 59.2839 171.763 54.146L168.497 43.2811L156.554 63.8556Z" fill="white"/>
<mask id="mask4_101_3908" style="mask-type:luminance" maskUnits="userSpaceOnUse" x="156" y="43" width="16" height="27">
<path d="M156.553 63.8557L162.909 69.0907C166.124 64.2728 169.079 59.2841 171.762 54.1461L168.497 43.2812L156.553 63.8557Z" fill="white"/>
</mask>
<g mask="url(#mask4_101_3908)">
<path d="M156.553 63.8557L162.909 69.0907C166.124 64.2728 169.079 59.2841 171.762 54.1461L168.497 43.2812L156.553 63.8557Z" fill="#FF7122"/>
<path opacity="0.5" d="M156.553 63.8557L162.909 69.0907C166.124 64.2728 169.079 59.2841 171.762 54.1461L168.497 43.2812L156.553 63.8557Z" fill="white"/>
</g>
<path d="M156.554 63.8556L162.91 69.0906C166.125 64.2727 169.08 59.2839 171.763 54.146L168.497 43.2811L156.554 63.8556Z" stroke="#263238" stroke-linecap="round" stroke-linejoin="round"/>
<path d="M136.338 10.0285C133.087 14.2015 131.305 19.3458 131.273 24.6514C131.273 34.361 135.511 48.9108 138.399 54.9208C141.287 60.9309 148.558 69.2806 152.07 69.5438C155.582 69.807 164.202 56.3831 165.929 53.0491C166.907 51.288 167.621 49.3908 168.048 47.4193C168.048 47.4193 173.055 45.0942 172.474 35.7209C171.894 26.3476 168.237 12.4266 169.209 10.1016C170.181 7.77653 174.593 3.31652 173.635 1.75187C172.678 0.187215 170.733 1.37167 168.629 2.52688C166.524 3.68209 158.47 1.95659 152.447 2.52688C148.444 2.93095 144.558 4.12337 141.011 6.0364C139.214 7.05273 137.627 8.40805 136.338 10.0285Z" fill="white"/>
<mask id="mask5_101_3908" style="mask-type:luminance" maskUnits="userSpaceOnUse" x="131" y="1" width="43" height="69">
<path d="M136.337 10.0285C133.086 14.2015 131.304 19.3458 131.272 24.6514C131.272 34.361 135.51 48.9108 138.398 54.9208C141.286 60.9309 148.557 69.2806 152.069 69.5438C155.581 69.807 164.201 56.3831 165.928 53.0491C166.906 51.288 167.62 49.3908 168.047 47.4193C168.047 47.4193 173.054 45.0942 172.473 35.7209C171.893 26.3476 168.236 12.4266 169.208 10.1016C170.18 7.77653 174.592 3.31652 173.634 1.75187C172.677 0.187215 170.732 1.37167 168.628 2.52688C166.523 3.68209 158.469 1.95659 152.446 2.52688C148.443 2.93095 144.557 4.12337 141.01 6.0364C139.213 7.05273 137.626 8.40805 136.337 10.0285Z" fill="white"/>
</mask>
<g mask="url(#mask5_101_3908)">
<path d="M152.546 69.4119C156.247 68.6516 164.316 56.1636 165.984 52.9904C166.962 51.2292 167.676 49.3321 168.103 47.3606C168.103 47.3606 173.11 45.0355 172.53 35.6622C171.949 26.2889 168.292 12.3679 169.264 10.0428C170.237 7.7178 174.648 3.25782 173.691 1.69317C173.505 1.38664 173.221 1.15296 172.886 1.03068C172.551 0.908402 172.185 0.904813 171.847 1.02051C166.562 4.94678 161.763 9.49778 157.553 14.576C151.632 22.2822 157.204 33.1471 157.204 33.1471C157.204 33.1471 161.021 42.9591 160.325 49.9634C159.759 55.6518 155.985 64.1769 152.546 69.4119Z" fill="#FF7122"/>
<path opacity="0.5" d="M152.546 69.4119C156.247 68.6516 164.316 56.1636 165.984 52.9904C166.962 51.2292 167.676 49.3321 168.103 47.3606C168.103 47.3606 173.11 45.0355 172.53 35.6622C171.949 26.2889 168.292 12.3679 169.264 10.0428C170.237 7.7178 174.648 3.25782 173.691 1.69317C173.505 1.38664 173.221 1.15296 172.886 1.03068C172.551 0.908402 172.185 0.904813 171.847 1.02051C166.562 4.94678 161.763 9.49778 157.553 14.576C151.632 22.2822 157.204 33.1471 157.204 33.1471C157.204 33.1471 161.021 42.9591 160.325 49.9634C159.759 55.6518 155.985 64.1769 152.546 69.4119Z" fill="white"/>
</g>
<path d="M136.338 10.0285C133.087 14.2015 131.305 19.3458 131.273 24.6514C131.273 34.361 135.511 48.9108 138.399 54.9208C141.287 60.9309 148.558 69.2806 152.07 69.5438C155.582 69.807 164.202 56.3831 165.929 53.0491C166.907 51.288 167.621 49.3908 168.048 47.4193C168.048 47.4193 173.055 45.0942 172.474 35.7209C171.894 26.3476 168.237 12.4266 169.209 10.1016C170.181 7.77653 174.593 3.31652 173.635 1.75187C172.678 0.187215 170.733 1.37167 168.629 2.52688C166.524 3.68209 158.47 1.95659 152.447 2.52688C148.444 2.93095 144.558 4.12337 141.011 6.0364C139.214 7.05273 137.627 8.40805 136.338 10.0285Z" stroke="#263238" stroke-linecap="round" stroke-linejoin="round"/>
<path d="M141.91 40.7659C141.781 42.5704 141.185 44.3095 140.183 45.8108C138.645 47.741 139.414 49.1009 141.721 48.9108C143.076 48.8109 144.361 48.2664 145.379 47.3608" stroke="#263238" stroke-linecap="round" stroke-linejoin="round"/>
<path d="M141.534 32.6062C141.534 32.6062 126.31 35.0044 124.96 37.344C123.611 39.6837 133.044 48.4136 135.946 46.8489C138.849 45.2843 140.953 39.4059 143.203 39.5375C145.452 39.6691 150.328 44.3923 154.566 43.6173C158.803 42.8423 163.81 32.9425 163.433 30.9977C163.056 29.0528 146.352 31.451 141.534 32.6062Z" fill="#263238" stroke="#263238" stroke-linecap="round" stroke-linejoin="round"/>
<path d="M150.284 35.9842C142.606 32.3723 140.038 35.9841 134.407 40.6342C132.768 41.9349 130.923 42.9483 128.95 43.6319C131.49 45.8692 134.508 47.624 135.945 46.849C138.848 45.299 140.952 39.4059 143.201 39.5375C145.451 39.6691 150.327 44.3923 154.565 43.6173C156.887 43.1933 159.426 40.0347 161.197 36.9493C157.542 37.6823 153.756 37.3474 150.284 35.9842Z" fill="#FF7122" stroke="#263238" stroke-linecap="round" stroke-linejoin="round"/>
<path d="M143.593 52.9905C145.511 53.5054 147.541 53.4077 149.402 52.711C151.263 52.0144 152.864 50.753 153.984 49.1008" stroke="#263238" stroke-linecap="round" stroke-linejoin="round"/>
<path d="M163.49 28.7312C163.49 28.7312 165.406 38.046 164.84 40.181C164.274 42.3159 166.378 40.7659 167.147 37.0809C167.549 35.42 167.806 33.7271 167.917 32.0214C166.755 30.5501 165.228 29.4149 163.49 28.7312Z" fill="#FF7122" stroke="#263238" stroke-linecap="round" stroke-linejoin="round"/>
<path d="M173.693 1.75172C172.736 0.201692 170.791 1.37152 168.687 2.52674C166.582 3.68195 158.528 1.95644 152.505 2.52674C148.502 2.93081 144.616 4.12322 141.069 6.03625C139.251 7.04639 137.644 8.40207 136.338 10.0283C133.087 14.2013 131.305 19.3457 131.273 24.6512C131.295 26.8828 131.465 29.1105 131.781 31.3193C137.267 27.3272 152.346 19.7087 172.503 36.7298C172.503 36.3934 172.503 36.0717 172.503 35.7208C171.937 26.406 168.266 12.4265 169.238 10.1014C170.21 7.77638 174.651 3.31638 173.693 1.75172Z" fill="#263238"/>
<mask id="mask6_101_3908" style="mask-type:luminance" maskUnits="userSpaceOnUse" x="131" y="1" width="43" height="36">
<path d="M173.692 1.75184C172.735 0.201814 170.79 1.37165 168.686 2.52686C166.581 3.68207 158.527 1.95656 152.504 2.52686C148.501 2.93093 144.615 4.12335 141.068 6.03637C139.25 7.04651 137.644 8.40219 136.337 10.0284C133.086 14.2015 131.304 19.3458 131.272 24.6514C131.294 26.883 131.464 29.1106 131.78 31.3194C137.266 27.3273 152.345 19.7088 172.502 36.7299C172.502 36.3936 172.502 36.0718 172.502 35.7209C171.936 26.4061 168.265 12.4266 169.237 10.1015C170.209 7.7765 174.65 3.3165 173.692 1.75184Z" fill="white"/>
</mask>
<g mask="url(#mask6_101_3908)">
<path d="M149.573 5.58327C155.001 4.58891 156.946 5.2762 157.628 5.77338C157.785 5.88914 157.917 6.03553 158.017 6.20384C158.116 6.37214 158.181 6.55894 158.208 6.75311C158.658 10.3942 162.199 10.3942 166.292 10.3942C167.342 10.415 168.347 10.8325 169.107 11.5641C169.066 11.0708 169.121 10.5743 169.267 10.1018C169.267 10.014 169.354 9.92629 169.397 9.82393C168.483 9.19001 167.401 8.84856 166.292 8.8442C162.054 8.8442 159.993 8.74182 159.732 6.563C159.685 6.1595 159.554 5.77037 159.349 5.42041C159.145 5.07045 158.87 4.76734 158.542 4.53042C156.96 3.36058 153.927 3.19975 149.297 4.04788C147.338 4.41345 146.801 4.22336 146.148 3.88703C145.394 4.121 144.697 4.3842 143.942 4.67666C144.445 4.79971 144.932 4.98128 145.394 5.2177C146.688 5.87749 148.185 6.00844 149.573 5.58327Z" fill="#FF7122"/>
<path d="M170.66 29.6086C168.294 24.2712 166.857 24.0811 164.158 24.9293L163.52 25.1193C161.14 25.8066 158.629 26.2014 156.263 22.8382C153.898 19.4749 149.892 19.1971 145.321 22.2679C142.999 23.8325 142.288 23.5693 140.184 22.8235C139.632 22.6188 139.008 22.3995 138.268 22.1655C135.743 21.4051 133.072 23.4816 131.316 25.2948C131.316 25.9967 131.316 26.7571 131.418 27.4883C132.956 25.6312 135.772 23.0136 137.818 23.657C138.544 23.8764 139.139 24.0811 139.676 24.2712C140.704 24.8207 141.872 25.0462 143.029 24.9184C144.185 24.7906 145.277 24.3155 146.163 23.5547C148.877 21.7415 152.621 20.2792 155.015 23.7302C157.787 27.7222 161.067 27.4298 163.911 26.6547L164.579 26.45C166.466 25.8651 167.162 25.6458 169.237 30.2959C169.929 31.9994 171.026 33.5058 172.43 34.6827C172.43 33.8931 172.285 33.0888 172.184 32.2407C171.573 31.4279 171.061 30.5442 170.66 29.6086Z" fill="#FF7122"/>
<path d="M166.974 2.90723C166.35 2.94447 165.725 2.94447 165.102 2.90723C165.815 3.96435 166.743 4.85743 167.823 5.5278C168.904 6.19817 170.113 6.63067 171.371 6.79693C171.705 6.329 172.053 5.84644 172.358 5.33464C170.339 5.17415 168.438 4.31675 166.974 2.90723Z" fill="#FF7122"/>
<path d="M137.338 14.825C138.046 14.7621 138.751 14.971 139.312 15.4099C140.255 16.0679 141.082 16.4335 143.811 15.5269C144.943 15.1467 146.002 14.6787 147.018 14.24C150.24 12.7777 152.141 12.1051 153.621 13.816C156.291 16.8868 157.975 17.7788 161.168 17.7788H162.837C165.637 17.6618 167.51 17.6911 168.163 19.2411C168.752 20.4921 169.615 21.592 170.688 22.4581C170.528 21.5223 170.369 20.6156 170.209 19.7236C169.955 19.384 169.741 19.016 169.57 18.6269C168.453 16.024 165.434 16.1557 162.779 16.2726H161.168C158.613 16.2726 157.322 15.7754 154.782 12.8509C152.475 10.2041 149.529 11.4909 146.408 12.8509C145.422 13.2749 144.391 13.7282 143.332 14.0792C141.126 14.825 140.734 14.5471 140.183 14.1669C139.349 13.5389 138.319 13.2328 137.28 13.3042C135.837 13.4427 134.473 14.0305 133.376 14.9858C132.933 15.9819 132.56 17.008 132.259 18.0566C133.855 16.4481 135.829 14.825 137.338 14.825Z" fill="#FF7122"/>
</g>
<path d="M173.693 1.75172C172.736 0.201692 170.791 1.37152 168.687 2.52674C166.582 3.68195 158.528 1.95644 152.505 2.52674C148.502 2.93081 144.616 4.12322 141.069 6.03625C139.251 7.04639 137.644 8.40207 136.338 10.0283C133.087 14.2013 131.305 19.3457 131.273 24.6512C131.295 26.8828 131.465 29.1105 131.781 31.3193C137.267 27.3272 152.346 19.7087 172.503 36.7298C172.503 36.3934 172.503 36.0717 172.503 35.7208C171.937 26.406 168.266 12.4265 169.238 10.1014C170.21 7.77638 174.651 3.31638 173.693 1.75172Z" stroke="#263238" stroke-linecap="round" stroke-linejoin="round"/>
<path d="M136.337 139.836C132.789 139.562 129.275 138.945 125.844 137.994C121.491 136.619 119.227 135.698 116.716 137.54C114.205 139.383 108.008 149.239 107.573 151.344C107.138 153.45 109.024 155.029 109.866 154.269C110.708 153.509 118.574 148.069 118.574 148.069C120.612 149.796 123.046 150.983 125.656 151.52C127.841 151.784 130.045 151.204 131.823 149.897L136.177 150.599L136.337 139.836Z" fill="#263238" stroke="#263238" stroke-linecap="round" stroke-linejoin="round"/>
<path d="M201.339 60.2581C201.339 60.2581 195.636 54.4967 185.376 63.0072C175.115 71.5178 178.119 88.3195 178.308 95.1777C178.497 102.036 181.036 119.554 181.036 123.239V129.22C181.036 129.22 167.569 135.201 162.33 136.809C157.091 138.418 146.801 138.652 144.523 139.105C142.244 139.558 136.527 137.043 135.162 139.573C133.798 142.103 131.055 151.754 134.698 153.362C138.341 154.971 156.612 155.205 169.397 155.205C182.183 155.205 201.818 151.988 206.39 149.224C210.961 146.46 210.032 130.594 210.032 119.788C210.032 108.982 209.8 85.0586 207.986 75.1589C206.172 65.2592 203.168 62.1006 201.339 60.2581Z" fill="#FF7122"/>
<mask id="mask7_101_3908" style="mask-type:luminance" maskUnits="userSpaceOnUse" x="132" y="58" width="79" height="98">
<path d="M201.338 60.2581C201.338 60.2581 195.635 54.4967 185.375 63.0072C175.114 71.5178 178.118 88.3195 178.307 95.1777C178.496 102.036 181.035 119.554 181.035 123.239V129.22C181.035 129.22 167.568 135.201 162.329 136.809C157.09 138.418 146.8 138.652 144.522 139.105C142.243 139.558 136.526 137.043 135.161 139.573C133.797 142.103 131.054 151.754 134.697 153.362C138.34 154.971 156.611 155.205 169.396 155.205C182.182 155.205 201.817 151.988 206.389 149.224C210.96 146.46 210.031 130.594 210.031 119.788C210.031 108.982 209.799 85.0586 207.985 75.1589C206.171 65.2592 203.167 62.1006 201.338 60.2581Z" fill="white"/>
</mask>
<g mask="url(#mask7_101_3908)">
<path opacity="0.2" d="M207.97 75.2027C206.141 65.3176 203.166 62.0421 201.338 60.2581C201.338 60.2581 198.217 57.1288 192.456 58.9274L192.079 59.4831C192.079 59.4831 201.076 60.7846 199.335 64.6596C197.593 68.5347 182.631 80.6278 182.631 80.6278C182.631 80.6278 191.193 75.4513 198.9 75.0273C206.606 74.6032 201.904 79.7651 197.622 80.6278C193.341 81.4906 209.61 82.792 203.181 84.5175C196.752 86.2431 190.337 83.6548 193.327 87.9686C196.316 92.2823 208.333 93.5838 204.937 97.8976C201.541 102.211 190.424 106.525 192.949 113.003C195.475 119.481 207.085 118.18 207.085 122.069C207.085 125.959 204.081 127.684 198.522 128.547C192.964 129.41 208.478 130.17 204.777 136.049C201.076 141.927 196.81 133.285 189.945 137.599C183.081 141.913 179.671 149.692 169.817 150.555C159.963 151.417 152.257 150.555 144.55 153.143C143.099 153.611 141.764 154.05 140.443 154.43C147.801 155.132 160.05 155.249 169.468 155.249C182.254 155.249 201.889 152.032 206.461 149.268C211.032 146.504 210.103 130.638 210.103 119.832C210.103 109.026 209.784 85.1025 207.97 75.2027Z" fill="black"/>
</g>
<path d="M201.339 60.2581C201.339 60.2581 195.636 54.4967 185.376 63.0072C175.115 71.5178 178.119 88.3195 178.308 95.1777C178.497 102.036 181.036 119.554 181.036 123.239V129.22C181.036 129.22 167.569 135.201 162.33 136.809C157.091 138.418 146.801 138.652 144.523 139.105C142.244 139.558 136.527 137.043 135.162 139.573C133.798 142.103 131.055 151.754 134.698 153.362C138.341 154.971 156.612 155.205 169.397 155.205C182.183 155.205 201.818 151.988 206.39 149.224C210.961 146.46 210.032 130.594 210.032 119.788C210.032 108.982 209.8 85.0586 207.986 75.1589C206.172 65.2592 203.168 62.1006 201.339 60.2581Z" stroke="#263238" stroke-linecap="round" stroke-linejoin="round"/>
<path d="M184.011 129.849C184.011 129.849 194.634 130.243 200.526 137.379" stroke="#263238" stroke-linecap="round" stroke-linejoin="round"/>
<path d="M184.403 128.255C184.403 128.255 194.634 125.082 200.135 127.465C205.635 129.849 210.758 125.871 201.716 122.713C192.675 119.554 185.419 123.283 183.228 126.281" stroke="#263238" stroke-linecap="round" stroke-linejoin="round"/>
<path d="M201.716 70.7868C201.716 70.7868 198.567 67.2188 188.728 75.1737C178.888 83.1286 181.254 87.8518 187.552 84.6786C193.851 81.5054 204.851 77.5573 205.649 82.3097C206.447 87.0622 194.634 84.6786 196.942 87.457C199.249 90.2353 204.807 90.2353 204.807 90.2353" stroke="#263238" stroke-linecap="round" stroke-linejoin="round"/>
<path d="M142.216 156.638H72.3672V159.855H142.216V156.638Z" fill="white" stroke="#263238" stroke-linecap="round" stroke-linejoin="round"/>
<path d="M110.491 156.638H72.3672V159.855H110.491V156.638Z" fill="white" stroke="#263238" stroke-linecap="round" stroke-linejoin="round"/>
<path d="M72.3662 156.638L56.8379 121.894H98.6193L110.49 156.638H72.3662Z" fill="white" stroke="#263238" stroke-linecap="round" stroke-linejoin="round"/>
<path d="M167.786 291.651C167.786 291.651 124.64 241.933 120.533 241.933C116.426 241.933 19.8604 260.563 16.4355 265.33C13.0105 270.097 0.689453 295 0.689453 295H173.954L167.786 291.651Z" fill="white"/>
<mask id="mask8_101_3908" style="mask-type:luminance" maskUnits="userSpaceOnUse" x="0" y="241" width="174" height="54">
<path d="M167.786 291.651C167.786 291.651 124.64 241.933 120.533 241.933C116.426 241.933 19.8604 260.563 16.4355 265.33C13.0105 270.097 0.689453 295 0.689453 295H173.954L167.786 291.651Z" fill="white"/>
</mask>
<g mask="url(#mask8_101_3908)">
<path opacity="0.21" d="M123.653 238.877L171.37 289.619L180.397 297.632L-5.18848 296.565L16.0288 261.835L116.76 238.321C116.76 238.321 118.922 237.269 123.653 238.877Z" fill="black"/>
<path d="M120.374 250.853C120.374 252.652 117.471 254.1 113.828 254.1C110.186 254.1 107.298 252.637 107.298 250.853C107.298 249.069 110.2 247.607 113.828 247.607C117.457 247.607 120.374 249.055 120.374 250.853Z" fill="white"/>
<path d="M81.3776 271.969C81.3776 276.633 76.3127 280.421 70.0579 280.421C63.803 280.421 58.7236 276.633 58.7236 271.969C58.7236 267.304 63.7885 263.531 70.0579 263.531C76.3273 263.531 81.3776 267.319 81.3776 271.969Z" fill="white"/>
<path d="M117.355 259.569C117.355 264.219 112.276 268.006 106.021 268.006C99.7659 268.006 94.6865 264.219 94.6865 259.569C94.6865 254.918 99.7659 251.116 106.021 251.116C112.276 251.116 117.355 254.904 117.355 259.569Z" fill="white"/>
<path d="M91.2323 264.029C91.2323 266.5 88.475 268.503 85.0791 268.503C81.6831 268.503 78.9258 266.5 78.9258 264.029C78.9258 261.557 81.6831 259.569 85.0791 259.569C88.475 259.569 91.2323 261.557 91.2323 264.029Z" fill="white"/>
<path d="M92.2197 259.569C95.6181 259.569 98.373 257.565 98.373 255.094C98.373 252.623 95.6181 250.619 92.2197 250.619C88.8213 250.619 86.0664 252.623 86.0664 255.094C86.0664 257.565 88.8213 259.569 92.2197 259.569Z" fill="white"/>
<path d="M83.1064 262.186C86.5048 262.186 89.2597 260.183 89.2597 257.711C89.2597 255.24 86.5048 253.237 83.1064 253.237C79.7081 253.237 76.9531 255.24 76.9531 257.711C76.9531 260.183 79.7081 262.186 83.1064 262.186Z" fill="white"/>
<path d="M33.8357 273.957C33.8357 276.429 31.0784 278.432 27.6824 278.432C24.2865 278.432 21.5146 276.429 21.5146 273.957C21.5146 271.486 24.272 269.497 27.6824 269.497C31.0929 269.497 33.8357 271.486 33.8357 273.957Z" fill="white"/>
<path d="M48.8706 266.514C48.8706 268.43 46.2148 269.995 42.9495 269.995C39.6842 269.995 37.043 268.43 37.043 266.514C37.043 264.599 39.6842 263.034 42.9495 263.034C46.2148 263.034 48.8706 264.599 48.8706 266.514Z" fill="white"/>
<path opacity="0.1" d="M148.601 270.009L148.238 270.097L120.533 241.977L108.285 270.872L49.8722 279.383L0.689453 295.102H173.954L167.786 291.651C167.786 291.651 158.774 281.284 148.601 270.009Z" fill="black"/>
</g>
<path d="M167.786 291.651C167.786 291.651 124.64 241.933 120.533 241.933C116.426 241.933 19.8604 260.563 16.4355 265.33C13.0105 270.097 0.689453 295 0.689453 295H173.954L167.786 291.651Z" stroke="#263238" stroke-linecap="round" stroke-linejoin="round"/>
</svg>
