<svg width="35" height="36" viewBox="0 0 35 36" fill="none" xmlns="http://www.w3.org/2000/svg">
<g clip-path="url(#clip0_0_8226)">
<path d="M5.83203 31.5737V33.9995C5.83203 34.5876 6.30813 35.0648 6.89471 35.0648H10.2836C10.8702 35.0648 11.3463 34.5876 11.3463 33.9995V31.5737H5.83203Z" fill="#454545"/>
<path d="M23.4995 31.574V33.9998C23.4995 34.5878 23.9756 35.0651 24.5622 35.0651H27.9511C28.5377 35.0651 29.0138 34.5878 29.0138 33.9998V31.574H23.4995Z" fill="#454545"/>
<path d="M33.4716 9.79219C33.1666 9.79219 32.9201 9.545 32.9201 9.2393C32.9201 8.84833 32.6024 8.53082 32.2134 8.53082H31.6077C31.3027 8.53082 31.0562 8.28363 31.0562 7.97794C31.0562 7.67224 31.3027 7.42505 31.6077 7.42505H32.2134C33.2113 7.42505 34.0232 8.239 34.0232 9.23827C34.0232 9.54397 33.7766 9.79219 33.4716 9.79219Z" fill="#CACACA"/>
<path d="M34.3917 9.14136H32.1792V15.1307H34.3917V9.14136Z" fill="#6F6F6F"/>
<path d="M1.37426 9.79219C1.67927 9.79219 1.92577 9.545 1.92577 9.2393C1.92577 8.84833 2.24249 8.53082 2.63249 8.53082H3.23825C3.54325 8.53082 3.78976 8.28363 3.78976 7.97794C3.78976 7.67224 3.54318 7.42505 3.23825 7.42505H2.63249C1.63461 7.42505 0.822754 8.239 0.822754 9.23827C0.822685 9.54397 1.06926 9.79219 1.37426 9.79219Z" fill="#CACACA"/>
<path d="M2.66665 9.14136H0.454102V15.1307H2.66665V9.14136Z" fill="#6F6F6F"/>
<path d="M29.5081 0.974121H5.33825C4.16502 0.974121 3.21289 1.9276 3.21289 3.10478V22.2682H31.6334V3.10478C31.6334 1.9276 30.6823 0.974121 29.5081 0.974121Z" fill="#86DAF1"/>
<path d="M3.21289 29.2532V29.8391C3.21289 31.0152 4.16509 31.9697 5.33825 31.9697H29.5081C30.6823 31.9697 31.6334 31.0152 31.6334 29.8391V29.2532H3.21289Z" fill="#ED6262"/>
<path d="M31.6334 26.1902H3.21289V29.2488H31.6334V26.1902Z" fill="#CD484B"/>
<path d="M31.6334 21.5842H3.21289V26.1951H31.6334V21.5842Z" fill="#F3F3F3"/>
<path d="M31.6334 6.93848H3.21289V20.252H31.6334V6.93848Z" fill="#6F6F6F"/>
<path d="M18.1816 6.93848H16.6641V20.252H18.1816V6.93848Z" fill="#454545"/>
<path d="M31.6334 20.2524H3.21289V21.5841H31.6334V20.2524Z" fill="#86DAF1"/>
<path d="M6.27537 28.5563C6.73434 28.5563 7.1064 28.1834 7.1064 27.7232C7.1064 27.2631 6.73434 26.8901 6.27537 26.8901C5.8164 26.8901 5.44434 27.2631 5.44434 27.7232C5.44434 28.1834 5.8164 28.5563 6.27537 28.5563Z" fill="#F3F3F3"/>
<path d="M8.39011 28.5563C8.84908 28.5563 9.22115 28.1834 9.22115 27.7232C9.22115 27.2631 8.84908 26.8901 8.39011 26.8901C7.93115 26.8901 7.55908 27.2631 7.55908 27.7232C7.55908 28.1834 7.93115 28.5563 8.39011 28.5563Z" fill="#FFE21F"/>
<path d="M26.456 28.5561C26.915 28.5561 27.2871 28.1831 27.2871 27.723C27.2871 27.2629 26.915 26.8899 26.456 26.8899C25.9971 26.8899 25.625 27.2629 25.625 27.723C25.625 28.1831 25.9971 28.5561 26.456 28.5561Z" fill="#FFE21F"/>
<path d="M28.5683 28.5563C29.0273 28.5563 29.3994 28.1834 29.3994 27.7232C29.3994 27.2631 29.0273 26.8901 28.5683 26.8901C28.1094 26.8901 27.7373 27.2631 27.7373 27.7232C27.7373 28.1834 28.1094 28.5563 28.5683 28.5563Z" fill="#F3F3F3"/>
<path d="M28.5879 22.7317H26.5507C25.913 22.7317 25.3955 23.2505 25.3955 23.8897C25.3955 24.5289 25.912 25.0466 26.5507 25.0466H28.5879C29.2255 25.0466 29.743 24.5289 29.743 23.8897C29.7419 23.2505 29.2255 22.7317 28.5879 22.7317Z" fill="#FFBD49"/>
<path d="M8.12643 22.7319H6.08923C5.45162 22.7319 4.93408 23.2508 4.93408 23.89C4.93408 24.5292 5.45052 25.0469 6.08923 25.0469H8.12643C8.76404 25.0469 9.28048 24.5292 9.28048 23.89C9.28158 23.2508 8.76404 22.7319 8.12643 22.7319Z" fill="#FFBD49"/>
<path d="M25.5217 1.90381H8.72592C7.59523 1.90381 6.6792 2.82213 6.6792 3.95564C6.6792 5.08916 7.59523 6.00857 8.72592 6.00857H25.5217C26.6524 6.00857 27.5684 5.09025 27.5684 3.95564C27.5685 2.82316 26.6525 1.90381 25.5217 1.90381Z" fill="#454545"/>
<path opacity="0.1" d="M31.6334 6.93848H3.21289V13.3902C3.21289 13.9985 3.67728 14.5546 4.2968 14.5802C4.94187 14.6196 5.4838 14.1018 5.4838 13.4552V11.3682C5.4838 10.8248 5.93544 10.4115 6.49017 10.4243C6.49017 10.4243 6.49017 10.4243 6.50291 10.4243C6.50291 10.4243 6.50291 10.4243 6.51565 10.4243C7.05764 10.4115 7.52203 10.8249 7.52203 11.3682V13.6746C7.52203 14.2957 7.97367 14.839 8.57943 14.8774C9.22663 14.9029 9.75581 14.4012 9.77286 13.7694V10.6885C9.77286 10.0407 10.3095 9.52404 10.9631 9.55281C11.5731 9.58906 12.03 10.1356 12.03 10.746V13.6885C12.0481 14.2819 12.4997 14.806 13.0948 14.8444C13.7526 14.8699 14.2818 14.3533 14.2818 13.7066L14.2945 11.1999C14.2945 10.5532 14.8238 10.0355 15.4815 10.061C16.0883 10.0994 16.5527 10.6427 16.5527 11.2638V13.9772C16.5654 14.5855 17.0691 15.0767 17.6749 15.0767C18.3072 15.0767 18.8098 14.5589 18.8098 13.9389V10.7066C18.8098 10.2145 19.1744 9.76279 19.8417 9.76279C20.3581 9.7244 20.796 10.1506 20.796 10.6556V13.8185C20.796 14.4396 21.2477 14.9819 21.8545 15.0213C22.5123 15.0469 23.0543 14.5302 23.0543 13.8835V11.5249C23.0543 11.0305 23.4219 10.581 24.0734 10.581C24.6281 10.581 25.0797 11.0338 25.0797 11.5771V13.3925C25.0797 14.0008 25.5441 14.5569 26.1509 14.5824C26.796 14.6218 27.3507 14.1041 27.3507 13.4574V11.3704C27.3507 10.8271 27.8024 10.4137 28.3444 10.4266C28.3571 10.4266 28.3571 10.4266 28.3571 10.4266C28.3698 10.4266 28.3698 10.4266 28.3826 10.4266C28.9246 10.4138 29.3762 10.8272 29.3762 11.3704V13.6769C29.3762 14.2979 29.8406 14.8413 30.4474 14.8797C31.1052 14.9052 31.6344 14.3875 31.6344 13.7408V6.93848H31.6334Z" fill="white"/>
</g>
<defs>
<clipPath id="clip0_0_8226">
<rect width="34.006" height="34.0909" fill="white" transform="translate(0.419922 0.973877)"/>
</clipPath>
</defs>
</svg>
