<svg width="19" height="17" viewBox="0 0 19 17" fill="none" xmlns="http://www.w3.org/2000/svg">
<path d="M1 3.8125H3.8125" stroke="white" stroke-width="1.5" stroke-linecap="round" stroke-linejoin="round"/>
<path d="M1 13.1875H6.625" stroke="white" stroke-width="1.5" stroke-linecap="round" stroke-linejoin="round"/>
<path d="M15.0625 13.1875L17.875 13.1875" stroke="white" stroke-width="1.5" stroke-linecap="round" stroke-linejoin="round"/>
<path d="M12.25 3.8125L17.875 3.8125" stroke="white" stroke-width="1.5" stroke-linecap="round" stroke-linejoin="round"/>
<path d="M3.8125 3.8125C3.8125 2.93886 3.8125 2.50204 3.95523 2.15747C4.14553 1.69804 4.51054 1.33303 4.96997 1.14273C5.31454 1 5.75136 1 6.625 1C7.49864 1 7.93546 1 8.28003 1.14273C8.73946 1.33303 9.10447 1.69804 9.29477 2.15747C9.4375 2.50204 9.4375 2.93886 9.4375 3.8125C9.4375 4.68614 9.4375 5.12296 9.29477 5.46753C9.10447 5.92696 8.73946 6.29197 8.28003 6.48227C7.93546 6.625 7.49864 6.625 6.625 6.625C5.75136 6.625 5.31454 6.625 4.96997 6.48227C4.51054 6.29197 4.14553 5.92696 3.95523 5.46753C3.8125 5.12296 3.8125 4.68614 3.8125 3.8125Z" stroke="white" stroke-width="1.5"/>
<path d="M9.4375 13.1875C9.4375 12.3139 9.4375 11.877 9.58023 11.5325C9.77053 11.073 10.1355 10.708 10.595 10.5177C10.9395 10.375 11.3764 10.375 12.25 10.375C13.1236 10.375 13.5605 10.375 13.905 10.5177C14.3645 10.708 14.7295 11.073 14.9198 11.5325C15.0625 11.877 15.0625 12.3139 15.0625 13.1875C15.0625 14.0611 15.0625 14.498 14.9198 14.8425C14.7295 15.302 14.3645 15.667 13.905 15.8573C13.5605 16 13.1236 16 12.25 16C11.3764 16 10.9395 16 10.595 15.8573C10.1355 15.667 9.77053 15.302 9.58023 14.8425C9.4375 14.498 9.4375 14.0611 9.4375 13.1875Z" stroke="white" stroke-width="1.5"/>
</svg>
